<svg width="36" height="36" viewBox="0 0 36 36" fill="none" xmlns="http://www.w3.org/2000/svg">
<g clip-path="url(#clip0_7736_2512)">
<path d="M0 18C0 25.6845 4.8165 32.2455 11.595 34.827C11.43 33.4215 11.2545 31.104 11.6325 29.478C11.958 28.08 13.734 20.571 13.734 20.571C13.734 20.571 13.1985 19.4985 13.1985 17.91C13.1985 15.42 14.6415 13.56 16.44 13.56C17.97 13.56 18.708 14.7075 18.708 16.083C18.708 17.6205 17.7285 19.9185 17.223 22.05C16.8015 23.8335 18.1185 25.2885 19.8765 25.2885C23.061 25.2885 25.5105 21.93 25.5105 17.082C25.5105 12.7905 22.4265 9.792 18.024 9.792C12.927 9.792 9.9345 13.6155 9.9345 17.568C9.9345 19.1085 10.527 20.7585 11.268 21.657C11.3312 21.7249 11.3758 21.8078 11.3976 21.8979C11.4194 21.9881 11.4177 22.0823 11.3925 22.1715C11.256 22.7385 10.953 23.955 10.8945 24.204C10.815 24.531 10.635 24.6015 10.2945 24.4425C8.0565 23.4015 6.6585 20.13 6.6585 17.502C6.6585 11.8485 10.764 6.6585 18.4965 6.6585C24.7125 6.6585 29.544 11.088 29.544 17.007C29.544 23.1825 25.6515 28.1535 20.2455 28.1535C18.429 28.1535 16.7235 27.2085 16.1385 26.094C16.1385 26.094 15.24 29.517 15.0225 30.354C14.5995 31.98 13.4265 34.038 12.699 35.2065C14.376 35.7225 16.155 36 18 36C27.9405 36 36 27.9405 36 18C36 8.0595 27.9405 0 18 0C8.0595 0 0 8.0595 0 18Z" fill="#ABB0B4"/>
</g>
<defs>
<clipPath id="clip0_7736_2512">
<rect width="36" height="36" fill="white"/>
</clipPath>
</defs>
</svg>
