<svg width="20" height="21" viewBox="0 0 20 21" fill="none" xmlns="http://www.w3.org/2000/svg">
<path d="M19.7029 4.44667C19.0071 4.755 18.2596 4.96334 17.4737 5.0575C18.2846 4.57233 18.8912 3.80872 19.1804 2.90917C18.4186 3.36166 17.5849 3.68016 16.7154 3.85084C16.1307 3.22656 15.3563 2.81277 14.5124 2.67373C13.6684 2.53469 12.8022 2.67816 12.0481 3.08188C11.2941 3.4856 10.6944 4.12697 10.3422 4.90642C9.99003 5.68587 9.90503 6.55979 10.1004 7.3925C8.55682 7.315 7.04677 6.91379 5.66827 6.21492C4.28977 5.51605 3.07362 4.53514 2.09875 3.33584C1.76542 3.91084 1.57375 4.5775 1.57375 5.2875C1.57338 5.92667 1.73078 6.55604 2.03198 7.11978C2.33319 7.68352 2.76888 8.1642 3.30042 8.51917C2.68398 8.49955 2.08114 8.33299 1.54208 8.03334V8.08334C1.54202 8.97979 1.85211 9.84865 2.41974 10.5425C2.98736 11.2363 3.77756 11.7124 4.65625 11.89C4.0844 12.0448 3.48486 12.0676 2.90292 11.9567C3.15083 12.728 3.63375 13.4025 4.28406 13.8858C4.93437 14.369 5.71951 14.6368 6.52958 14.6517C5.15444 15.7312 3.45616 16.3167 1.70792 16.3142C1.39823 16.3143 1.08881 16.2962 0.78125 16.26C2.55581 17.401 4.62153 18.0065 6.73125 18.0042C13.8729 18.0042 17.7771 12.0892 17.7771 6.95917C17.7771 6.7925 17.7729 6.62417 17.7654 6.4575C18.5248 5.90831 19.1803 5.22825 19.7013 4.44917L19.7029 4.44667Z" fill="#ABB0B4"/>
</svg>
