<svg width="20" height="21" viewBox="0 0 20 21" fill="none" xmlns="http://www.w3.org/2000/svg">
<g clip-path="url(#clip0_7736_2699)">
<path d="M0 10.333C0 14.6022 2.67583 18.2472 6.44167 19.6813C6.35 18.9005 6.2525 17.613 6.4625 16.7097C6.64333 15.933 7.63 11.7613 7.63 11.7613C7.63 11.7613 7.3325 11.1655 7.3325 10.283C7.3325 8.89967 8.13417 7.86634 9.13333 7.86634C9.98333 7.86634 10.3933 8.50384 10.3933 9.26801C10.3933 10.1222 9.84917 11.3988 9.56833 12.583C9.33417 13.5738 10.0658 14.3822 11.0425 14.3822C12.8117 14.3822 14.1725 12.5163 14.1725 9.82301C14.1725 7.43884 12.4592 5.77301 10.0133 5.77301C7.18167 5.77301 5.51917 7.89717 5.51917 10.093C5.51917 10.9488 5.84833 11.8655 6.26 12.3647C6.2951 12.4024 6.3199 12.4485 6.33201 12.4985C6.34412 12.5486 6.34314 12.6009 6.32917 12.6505C6.25333 12.9655 6.085 13.6413 6.0525 13.7797C6.00833 13.9613 5.90833 14.0005 5.71917 13.9122C4.47583 13.3338 3.69917 11.5163 3.69917 10.0563C3.69917 6.91551 5.98 4.03217 10.2758 4.03217C13.7292 4.03217 16.4133 6.49301 16.4133 9.78134C16.4133 13.2122 14.2508 15.9738 11.2475 15.9738C10.2383 15.9738 9.29083 15.4488 8.96583 14.8297C8.96583 14.8297 8.46667 16.7313 8.34583 17.1963C8.11083 18.0997 7.45917 19.243 7.055 19.8922C7.98667 20.1788 8.975 20.333 10 20.333C15.5225 20.333 20 15.8555 20 10.333C20 4.81051 15.5225 0.333008 10 0.333008C4.4775 0.333008 0 4.81051 0 10.333Z" fill="#ABB0B4"/>
</g>
<defs>
<clipPath id="clip0_7736_2699">
<rect width="20" height="20" fill="white" transform="translate(0 0.333008)"/>
</clipPath>
</defs>
</svg>
