<svg width="20" height="21" viewBox="0 0 20 21" fill="none" xmlns="http://www.w3.org/2000/svg">
<g clip-path="url(#clip0_7736_2705)">
<path d="M19.5838 5.75443C19.4706 5.35046 19.25 4.98472 18.9455 4.6961C18.6324 4.3986 18.2487 4.1858 17.8305 4.07777C16.2655 3.66527 9.99551 3.66527 9.99551 3.66527C7.38162 3.63553 4.76837 3.76633 2.17051 4.05693C1.75234 4.17294 1.36932 4.3905 1.05551 4.69027C0.747181 4.98693 0.523848 5.35277 0.407181 5.7536C0.126925 7.26339 -0.00924233 8.79639 0.000514319 10.3319C-0.00948568 11.8661 0.126348 13.3986 0.407181 14.9103C0.521348 15.3094 0.743848 15.6736 1.05301 15.9678C1.36218 16.2619 1.74718 16.4744 2.17051 16.5869C3.75635 16.9986 9.99551 16.9986 9.99551 16.9986C12.6127 17.0284 15.2293 16.8976 17.8305 16.6069C18.2487 16.4989 18.6324 16.2861 18.9455 15.9886C19.2499 15.7 19.4702 15.3342 19.583 14.9303C19.8706 13.4211 20.0104 11.8874 20.0005 10.3511C20.0221 8.80827 19.8825 7.2674 19.5838 5.7536V5.75443ZM8.00218 13.1853V7.47943L13.2188 10.3328L8.00218 13.1853Z" fill="#ABB0B4"/>
</g>
<defs>
<clipPath id="clip0_7736_2705">
<rect width="20" height="20" fill="white" transform="translate(0 0.333008)"/>
</clipPath>
</defs>
</svg>
