<svg width="36" height="36" viewBox="0 0 36 36" fill="none" xmlns="http://www.w3.org/2000/svg">
<path d="M35.4652 7.40439C34.2127 7.95939 32.8673 8.3344 31.4528 8.5039C32.9123 7.63058 34.0042 6.25609 34.5247 4.63689C33.1535 5.45138 31.6528 6.02469 30.0877 6.3319C29.0353 5.20819 27.6413 4.46338 26.1222 4.21311C24.6031 3.96283 23.0439 4.22108 21.6866 4.94777C20.3293 5.67447 19.2499 6.82894 18.616 8.23195C17.982 9.63496 17.8291 11.208 18.1807 12.7069C15.4023 12.5674 12.6842 11.8452 10.2029 10.5873C7.72158 9.32929 5.53251 7.56364 3.77775 5.4049C3.17775 6.4399 2.83275 7.6399 2.83275 8.9179C2.83208 10.0684 3.1154 11.2013 3.65757 12.216C4.19974 13.2307 4.98399 14.096 5.94075 14.7349C4.83116 14.6996 3.74606 14.3998 2.77575 13.8604V13.9504C2.77564 15.564 3.3338 17.128 4.35552 18.3769C5.37725 19.6258 6.79961 20.4828 8.38125 20.8024C7.35193 21.081 6.27276 21.122 5.22525 20.9224C5.6715 22.3108 6.54074 23.5249 7.7113 24.3948C8.88186 25.2646 10.2951 25.7467 11.7533 25.7734C9.278 27.7165 6.22108 28.7705 3.07425 28.7659C2.51682 28.766 1.95986 28.7335 1.40625 28.6684C4.60046 30.7222 8.31876 31.8121 12.1163 31.8079C24.9712 31.8079 31.9988 21.1609 31.9988 11.9269C31.9988 11.6269 31.9913 11.3239 31.9778 11.0239C33.3447 10.0354 34.5246 8.81124 35.4622 7.4089L35.4652 7.40439Z" fill="#ABB0B4"/>
</svg>
