<svg width="20" height="21" viewBox="0 0 20 21" fill="none" xmlns="http://www.w3.org/2000/svg">
<g clip-path="url(#clip0_7736_2697)">
<path d="M9.99913 7.21027C8.27882 7.21027 6.87492 8.61417 6.87492 10.3345C6.87492 12.0548 8.27882 13.4587 9.99913 13.4587C11.7194 13.4587 13.1234 12.0548 13.1234 10.3345C13.1234 8.61417 11.7194 7.21027 9.99913 7.21027ZM19.3694 10.3345C19.3694 9.04074 19.3812 7.7587 19.3085 6.4673C19.2359 4.9673 18.8937 3.63605 17.7968 2.53917C16.6976 1.43995 15.3687 1.10011 13.8687 1.02745C12.5749 0.954799 11.2929 0.966517 10.0015 0.966517C8.70773 0.966517 7.4257 0.954799 6.13429 1.02745C4.63429 1.10011 3.30304 1.4423 2.20617 2.53917C1.10695 3.63839 0.767103 4.9673 0.694447 6.4673C0.621791 7.76105 0.63351 9.04308 0.63351 10.3345C0.63351 11.6259 0.621791 12.9103 0.694447 14.2017C0.767103 15.7017 1.10929 17.0329 2.20617 18.1298C3.30538 19.229 4.63429 19.5689 6.13429 19.6415C7.42804 19.7142 8.71007 19.7025 10.0015 19.7025C11.2952 19.7025 12.5773 19.7142 13.8687 19.6415C15.3687 19.5689 16.6999 19.2267 17.7968 18.1298C18.896 17.0306 19.2359 15.7017 19.3085 14.2017C19.3835 12.9103 19.3694 11.6282 19.3694 10.3345ZM9.99913 15.1415C7.33898 15.1415 5.1921 12.9946 5.1921 10.3345C5.1921 7.67433 7.33898 5.52745 9.99913 5.52745C12.6593 5.52745 14.8062 7.67433 14.8062 10.3345C14.8062 12.9946 12.6593 15.1415 9.99913 15.1415ZM15.003 6.45324C14.3819 6.45324 13.8804 5.95167 13.8804 5.33058C13.8804 4.70949 14.3819 4.20792 15.003 4.20792C15.6241 4.20792 16.1257 4.70949 16.1257 5.33058C16.1259 5.47806 16.097 5.62413 16.0406 5.76042C15.9843 5.89671 15.9016 6.02055 15.7973 6.12483C15.693 6.22912 15.5692 6.3118 15.4329 6.36816C15.2966 6.42451 15.1505 6.45342 15.003 6.45324Z" fill="#ABB0B4"/>
</g>
<defs>
<clipPath id="clip0_7736_2697">
<rect width="20" height="20" fill="white" transform="translate(0 0.333008)"/>
</clipPath>
</defs>
</svg>
