<svg width="24" height="24" viewBox="0 0 24 24" fill="none" xmlns="http://www.w3.org/2000/svg">
<g clip-path="url(#clip0_7736_3267)">
<path d="M11.9994 8.2531C9.93498 8.2531 8.25029 9.93779 8.25029 12.0022C8.25029 14.0665 9.93498 15.7512 11.9994 15.7512C14.0637 15.7512 15.7484 14.0665 15.7484 12.0022C15.7484 9.93779 14.0637 8.2531 11.9994 8.2531ZM23.2437 12.0022C23.2437 10.4497 23.2578 8.91123 23.1706 7.36154C23.0834 5.56154 22.6728 3.96404 21.3565 2.64779C20.0375 1.32873 18.4428 0.920915 16.6428 0.833727C15.0903 0.74654 13.5519 0.760602 12.0022 0.760602C10.4497 0.760602 8.91123 0.74654 7.36154 0.833727C5.56154 0.920915 3.96404 1.33154 2.64779 2.64779C1.32873 3.96685 0.920915 5.56154 0.833727 7.36154C0.74654 8.91404 0.760602 10.4525 0.760602 12.0022C0.760602 13.5519 0.74654 15.0931 0.833727 16.6428C0.920915 18.4428 1.33154 20.0403 2.64779 21.3565C3.96685 22.6756 5.56154 23.0834 7.36154 23.1706C8.91404 23.2578 10.4525 23.2437 12.0022 23.2437C13.5547 23.2437 15.0931 23.2578 16.6428 23.1706C18.4428 23.0834 20.0403 22.6728 21.3565 21.3565C22.6756 20.0375 23.0834 18.4428 23.1706 16.6428C23.2606 15.0931 23.2437 13.5547 23.2437 12.0022ZM11.9994 17.7706C8.80716 17.7706 6.23091 15.1944 6.23091 12.0022C6.23091 8.80998 8.80716 6.23373 11.9994 6.23373C15.1915 6.23373 17.7678 8.80998 17.7678 12.0022C17.7678 15.1944 15.1915 17.7706 11.9994 17.7706ZM18.004 7.34466C17.2587 7.34466 16.6569 6.74279 16.6569 5.99748C16.6569 5.25216 17.2587 4.65029 18.004 4.65029C18.7494 4.65029 19.3512 5.25216 19.3512 5.99748C19.3514 6.17445 19.3168 6.34974 19.2491 6.51329C19.1815 6.67683 19.0823 6.82544 18.9571 6.95058C18.832 7.07572 18.6834 7.17494 18.5198 7.24257C18.3563 7.31019 18.181 7.34489 18.004 7.34466Z" fill="#5A5C5E"/>
</g>
<defs>
<clipPath id="clip0_7736_3267">
<rect width="24" height="24" fill="white"/>
</clipPath>
</defs>
</svg>
