<svg width="36" height="36" viewBox="0 0 36 36" fill="none" xmlns="http://www.w3.org/2000/svg">
<path d="M17.9984 12.3787C14.9019 12.3787 12.3748 14.9057 12.3748 18.0023C12.3748 21.0988 14.9019 23.6259 17.9984 23.6259C21.095 23.6259 23.622 21.0988 23.622 18.0023C23.622 14.9057 21.095 12.3787 17.9984 12.3787ZM34.865 18.0023C34.865 15.6735 34.8861 13.3659 34.7553 11.0413C34.6245 8.34133 34.0086 5.94508 32.0342 3.97071C30.0556 1.99211 27.6636 1.3804 24.9636 1.24961C22.6348 1.11883 20.3272 1.13993 18.0026 1.13993C15.6739 1.13993 13.3662 1.11883 11.0417 1.24961C8.3417 1.3804 5.94545 1.99633 3.97107 3.97071C1.99248 5.9493 1.38076 8.34133 1.24998 11.0413C1.1192 13.3701 1.14029 15.6777 1.14029 18.0023C1.14029 20.3268 1.1192 22.6387 1.24998 24.9632C1.38076 27.6632 1.9967 30.0595 3.97107 32.0338C5.94967 34.0124 8.3417 34.6241 11.0417 34.7549C13.3705 34.8857 15.6781 34.8646 18.0026 34.8646C20.3314 34.8646 22.639 34.8857 24.9636 34.7549C27.6636 34.6241 30.0598 34.0082 32.0342 32.0338C34.0128 30.0552 34.6245 27.6632 34.7553 24.9632C34.8903 22.6387 34.865 20.331 34.865 18.0023ZM17.9984 26.6549C13.2101 26.6549 9.34576 22.7906 9.34576 18.0023C9.34576 13.214 13.2101 9.34961 17.9984 9.34961C22.7867 9.34961 26.6511 13.214 26.6511 18.0023C26.6511 22.7906 22.7867 26.6549 17.9984 26.6549ZM27.0055 11.016C25.8875 11.016 24.9847 10.1132 24.9847 8.99524C24.9847 7.87727 25.8875 6.97446 27.0055 6.97446C28.1234 6.97446 29.0262 7.87727 29.0262 8.99524C29.0266 9.2607 28.9745 9.52363 28.8731 9.76895C28.7717 10.0143 28.6228 10.2372 28.4351 10.4249C28.2474 10.6126 28.0245 10.7614 27.7792 10.8629C27.5338 10.9643 27.2709 11.0164 27.0055 11.016Z" fill="#ABB0B4"/>
</svg>
