<svg width="25" height="24" viewBox="0 0 25 24" fill="none" xmlns="http://www.w3.org/2000/svg">
<path d="M8.75 5.24958H18.5C18.6989 5.24958 18.8897 5.3286 19.0303 5.46925C19.171 5.6099 19.25 5.80067 19.25 5.99958V15.7496C19.25 15.9485 19.171 16.1393 19.0303 16.2799C18.8897 16.4206 18.6989 16.4996 18.5 16.4996C18.3011 16.4996 18.1103 16.4206 17.9697 16.2799C17.829 16.1393 17.75 15.9485 17.75 15.7496V7.8099L7.03063 18.5302C6.8899 18.6709 6.69902 18.75 6.5 18.75C6.30098 18.75 6.11011 18.6709 5.96938 18.5302C5.82865 18.3895 5.74958 18.1986 5.74958 17.9996C5.74958 17.8006 5.82865 17.6097 5.96938 17.469L16.6897 6.74958H8.75C8.55109 6.74958 8.36032 6.67057 8.21967 6.52991C8.07902 6.38926 8 6.19849 8 5.99958C8 5.80067 8.07902 5.6099 8.21967 5.46925C8.36032 5.3286 8.55109 5.24958 8.75 5.24958Z" fill="#F9F8F3"/>
</svg>
