<svg width="24" height="24" viewBox="0 0 24 24" fill="none" xmlns="http://www.w3.org/2000/svg">
<path d="M8.24993 5.24958H17.9999C18.1988 5.24958 18.3896 5.3286 18.5303 5.46925C18.6709 5.6099 18.7499 5.80067 18.7499 5.99958V15.7496C18.7499 15.9485 18.6709 16.1393 18.5303 16.2799C18.3896 16.4206 18.1988 16.4996 17.9999 16.4996C17.801 16.4996 17.6103 16.4206 17.4696 16.2799C17.3289 16.1393 17.2499 15.9485 17.2499 15.7496V7.8099L6.53055 18.5302C6.38982 18.6709 6.19895 18.75 5.99993 18.75C5.80091 18.75 5.61003 18.6709 5.4693 18.5302C5.32857 18.3895 5.24951 18.1986 5.24951 17.9996C5.24951 17.8006 5.32857 17.6097 5.4693 17.469L16.1896 6.74958H8.24993C8.05102 6.74958 7.86025 6.67057 7.7196 6.52991C7.57895 6.38926 7.49993 6.19849 7.49993 5.99958C7.49993 5.80067 7.57895 5.6099 7.7196 5.46925C7.86025 5.3286 8.05102 5.24958 8.24993 5.24958Z" fill="#121518"/>
</svg>
