<svg width="25" height="24" viewBox="0 0 25 24" fill="none" xmlns="http://www.w3.org/2000/svg">
<path d="M8.75042 5.25007H18.5004C18.6993 5.25007 18.8901 5.32909 19.0307 5.46974C19.1714 5.61039 19.2504 5.80116 19.2504 6.00007V15.7501C19.2504 15.949 19.1714 16.1397 19.0307 16.2804C18.8901 16.4211 18.6993 16.5001 18.5004 16.5001C18.3015 16.5001 18.1107 16.4211 17.9701 16.2804C17.8294 16.1397 17.7504 15.949 17.7504 15.7501V7.81038L7.03104 18.5307C6.89031 18.6714 6.69944 18.7505 6.50042 18.7505C6.30139 18.7505 6.11052 18.6714 5.96979 18.5307C5.82906 18.39 5.75 18.1991 5.75 18.0001C5.75 17.801 5.82906 17.6102 5.96979 17.4694L16.6901 6.75007H8.75042C8.5515 6.75007 8.36074 6.67105 8.22009 6.5304C8.07943 6.38975 8.00042 6.19898 8.00042 6.00007C8.00042 5.80116 8.07943 5.61039 8.22009 5.46974C8.36074 5.32909 8.5515 5.25007 8.75042 5.25007Z" fill="#121518"/>
</svg>
