<svg width="32" height="32" viewBox="0 0 32 32" fill="none" xmlns="http://www.w3.org/2000/svg">
<g clip-path="url(#clip0_7736_2629)">
<path d="M9.2925 15.2933L19.2925 5.29329C19.4324 5.15328 19.6106 5.05791 19.8047 5.01926C19.9988 4.98061 20.2 5.00041 20.3828 5.07616C20.5656 5.15192 20.7218 5.28021 20.8317 5.44481C20.9416 5.6094 21.0002 5.80289 21 6.00079V26.0008C21.0002 26.1987 20.9416 26.3922 20.8317 26.5568C20.7218 26.7214 20.5656 26.8497 20.3828 26.9254C20.2 27.0012 19.9988 27.021 19.8047 26.9823C19.6106 26.9437 19.4324 26.8483 19.2925 26.7083L9.2925 16.7083C9.19952 16.6154 9.12576 16.5051 9.07544 16.3837C9.02512 16.2623 8.99921 16.1322 8.99921 16.0008C8.99921 15.8694 9.02512 15.7392 9.07544 15.6178C9.12576 15.4964 9.19952 15.3862 9.2925 15.2933Z" fill="#F37935"/>
</g>
<defs>
<clipPath id="clip0_7736_2629">
<rect width="32" height="32" fill="white" transform="matrix(-1 0 0 1 32 0)"/>
</clipPath>
</defs>
</svg>
