<svg width="89" height="88" viewBox="0 0 89 88" fill="none" xmlns="http://www.w3.org/2000/svg">
<path d="M45.1758 20C38.678 20 32.4463 22.5812 27.8517 27.1759C23.257 31.7705 20.6758 38.0022 20.6758 44.5C20.6758 50.9978 23.257 57.2295 27.8517 61.8241C32.4463 66.4188 38.678 69 45.1758 69C51.6736 69 57.9053 66.4188 62.4999 61.8241C67.0945 57.2295 69.6758 50.9978 69.6758 44.5C69.6758 38.0022 67.0945 31.7705 62.4999 27.1759C57.9053 22.5812 51.6736 20 45.1758 20ZM45.1758 29.1875C41.1147 29.1875 37.2199 30.8008 34.3482 33.6724C31.4766 36.5441 29.8633 40.4389 29.8633 44.5C29.8633 48.5611 31.4766 52.4559 34.3482 55.3276C37.2199 58.1992 41.1147 59.8125 45.1758 59.8125C49.2369 59.8125 53.1317 58.1992 56.0034 55.3276C58.875 52.4559 60.4883 48.5611 60.4883 44.5C60.4883 40.4389 58.875 36.5441 56.0034 33.6724C53.1317 30.8008 49.2369 29.1875 45.1758 29.1875ZM54.3633 56.75C64.5716 48.5833 65.5924 37.574 57.4258 23.2823L54.3633 56.75Z" fill="#5A5C5E"/>
<path d="M35.9883 32.25C25.7799 40.4167 24.7591 51.6458 32.9258 65.9375M54.3633 56.75C64.5716 48.5833 65.5924 37.574 57.4258 23.2823M45.1758 20C38.678 20 32.4463 22.5812 27.8517 27.1759C23.257 31.7705 20.6758 38.0022 20.6758 44.5C20.6758 50.9978 23.257 57.2295 27.8517 61.8241C32.4463 66.4188 38.678 69 45.1758 69C51.6736 69 57.9053 66.4188 62.4999 61.8241C67.0945 57.2295 69.6758 50.9978 69.6758 44.5C69.6758 38.0022 67.0945 31.7705 62.4999 27.1759C57.9053 22.5812 51.6736 20 45.1758 20ZM45.1758 29.1875C41.1147 29.1875 37.2199 30.8008 34.3482 33.6724C31.4766 36.5441 29.8633 40.4389 29.8633 44.5C29.8633 48.5611 31.4766 52.4559 34.3482 55.3276C37.2199 58.1992 41.1147 59.8125 45.1758 59.8125C49.2369 59.8125 53.1317 58.1992 56.0034 55.3276C58.875 52.4559 60.4883 48.5611 60.4883 44.5C60.4883 40.4389 58.875 36.5441 56.0034 33.6724C53.1317 30.8008 49.2369 29.1875 45.1758 29.1875Z" stroke="#ABB0B4" stroke-width="2" stroke-linejoin="round"/>
</svg>
