<svg width="89" height="88" viewBox="0 0 89 88" fill="none" xmlns="http://www.w3.org/2000/svg">
<path d="M35.4487 31.75C25.2404 39.9167 24.2196 51.1458 32.3862 65.4375M53.8237 56.25C64.0321 48.0833 65.0529 37.074 56.8862 22.7823M44.6362 19.5C38.1384 19.5 31.9068 22.0812 27.3121 26.6759C22.7175 31.2705 20.1362 37.5022 20.1362 44C20.1362 50.4978 22.7175 56.7295 27.3121 61.3241C31.9068 65.9188 38.1384 68.5 44.6362 68.5C51.134 68.5 57.3657 65.9188 61.9603 61.3241C66.555 56.7295 69.1362 50.4978 69.1362 44C69.1362 37.5022 66.555 31.2705 61.9603 26.6759C57.3657 22.0812 51.134 19.5 44.6362 19.5ZM44.6362 28.6875C40.5751 28.6875 36.6803 30.3008 33.8087 33.1724C30.937 36.0441 29.3237 39.9389 29.3237 44C29.3237 48.0611 30.937 51.9559 33.8087 54.8276C36.6803 57.6992 40.5751 59.3125 44.6362 59.3125C48.6974 59.3125 52.5922 57.6992 55.4638 54.8276C58.3355 51.9559 59.9487 48.0611 59.9487 44C59.9487 39.9389 58.3355 36.0441 55.4638 33.1724C52.5922 30.3008 48.6974 28.6875 44.6362 28.6875Z" stroke="#ABB0B4" stroke-width="2" stroke-linejoin="round"/>
</svg>
