<svg width="40" height="32" viewBox="0 0 40 32" fill="none" xmlns="http://www.w3.org/2000/svg">
<path d="M9.50848 14.5414C8.08381 14.5462 6.68435 14.9176 5.44478 15.6199C7.18996 11.1027 10.0845 7.11944 13.8418 4.06438C14.0568 3.88734 14.2348 3.66969 14.3657 3.42386C14.4965 3.17802 14.5777 2.90882 14.6045 2.63162C14.6313 2.35442 14.6033 2.07465 14.522 1.80829C14.4407 1.54192 14.3077 1.29418 14.1307 1.0792C13.9537 0.86422 13.736 0.686216 13.4902 0.555352C13.2443 0.424489 12.9751 0.343328 12.6979 0.316502C12.4207 0.289676 12.141 0.317712 11.8746 0.399008C11.6082 0.480304 11.3605 0.613268 11.1455 0.790309C3.44182 7.04956 0.0136719 15.7162 0.0136719 21.0896C0.0269454 22.9895 0.593125 24.8444 1.64308 26.4279C2.69304 28.0114 4.18134 29.2549 5.92626 30.0066C7.05555 30.5536 8.29223 30.8431 9.547 30.854C10.6514 30.9077 11.7553 30.7365 12.7916 30.3508C13.8279 29.9652 14.7751 29.3731 15.5757 28.6104C16.3764 27.8477 17.0138 26.9304 17.4493 25.914C17.8848 24.8977 18.1094 23.8034 18.1094 22.6977C18.1094 21.592 17.8848 20.4977 17.4493 19.4814C17.0138 18.465 16.3764 17.5477 15.5757 16.785C14.7751 16.0224 13.8279 15.4302 12.7916 15.0446C11.7553 14.6589 10.6514 14.4877 9.547 14.5414H9.50848Z" fill="#121518"/>
<path d="M30.9636 14.5407C29.5387 14.5438 28.1388 14.9153 26.8999 15.6192C28.6443 11.1067 31.5312 7.1248 35.2776 4.06367C35.5121 3.89465 35.7096 3.67942 35.8578 3.43125C36.006 3.18307 36.1018 2.90719 36.1394 2.62059C36.177 2.33398 36.1555 2.04271 36.0763 1.76471C35.9971 1.48671 35.8619 1.22786 35.6789 1.00408C35.496 0.780302 35.2691 0.596335 35.0124 0.463501C34.7557 0.330667 34.4745 0.251778 34.1861 0.231686C33.8978 0.211595 33.6083 0.250726 33.3357 0.346673C33.063 0.442621 32.8128 0.593354 32.6006 0.789595C24.8969 7.04886 21.4688 15.7155 21.4688 21.0889C21.4779 22.9673 22.0275 24.8033 23.0521 26.3777C24.0767 27.9521 25.5328 29.1983 27.2465 29.9674C28.4044 30.5304 29.676 30.8204 30.9636 30.8148C32.068 30.8685 33.1719 30.6973 34.2082 30.3116C35.2445 29.926 36.1917 29.3338 36.9923 28.5712C37.7929 27.8085 38.4303 26.8912 38.8659 25.8748C39.3014 24.8585 39.526 23.7642 39.526 22.6585C39.526 21.5527 39.3014 20.4585 38.8659 19.4422C38.4303 18.4258 37.7929 17.5085 36.9923 16.7458C36.1917 15.9831 35.2445 15.391 34.2082 15.0054C33.1719 14.6197 32.068 14.4485 30.9636 14.5022V14.5407Z" fill="#121518"/>
</svg>
