<svg width="89" height="88" viewBox="0 0 89 88" fill="none" xmlns="http://www.w3.org/2000/svg">
<path d="M33.4909 28.1667V52.6667M33.4909 28.1667H45.7409C47.9068 28.1667 49.984 29.0271 51.5156 30.5586C53.0471 32.0902 53.9076 34.1674 53.9076 36.3333C53.9076 38.4993 53.0471 40.5765 51.5156 42.108C49.984 43.6396 47.9068 44.5 45.7409 44.5H33.4909V28.1667ZM33.4909 52.6667C31.325 52.6667 29.2477 53.5271 27.7162 55.0586C26.1846 56.5902 25.3242 58.6674 25.3242 60.8333M33.4909 52.6667H49.8242C53.0731 52.6667 56.189 50.9458 58.4863 47.8827C60.7836 44.8196 62.0742 40.6652 62.0742 36.3333C62.0742 32.0015 60.7836 27.847 58.4863 24.7839C56.189 21.7208 53.0731 20 49.8242 20H25.3242V60.8333M25.3242 60.8333C25.3242 62.9993 26.1846 65.0765 27.7162 66.608C29.2477 68.1396 31.325 69 33.4909 69V56.75" stroke="#ABB0B4" stroke-width="2" stroke-linecap="square" stroke-linejoin="round"/>
</svg>
