<svg width="88" height="88" viewBox="0 0 88 88" fill="none" xmlns="http://www.w3.org/2000/svg">
<path d="M25.2769 43.6923C37.6923 27.1385 50.1077 27.1385 62.5231 43.6923M25.2769 43.6923C37.6923 60.2462 50.1077 60.2462 62.5231 43.6923M25.2769 43.6923L21.1385 39.5538C36.3128 23 50.7974 23 64.5923 39.5538L70.8 47.8308M62.5231 43.6923L66.6615 47.8308C51.4872 64.3846 37.0026 64.3846 23.2077 47.8308L17 39.5538M17 39.5538V47.8308C34.9333 69.9026 52.8667 69.9026 70.8 47.8308M17 39.5538C34.9333 17.4821 52.8667 17.4821 70.8 39.5538V47.8308" stroke="#ABB0B4" stroke-width="2" stroke-linecap="round" stroke-linejoin="round"/>
</svg>
