<svg width="89" height="88" viewBox="0 0 89 88" fill="none" xmlns="http://www.w3.org/2000/svg">
<path d="M35.9504 59.8986C40.9646 62.7666 47.4173 61.058 50.3079 56.0512C53.2057 51.0322 51.48 44.5917 46.4609 41.6939L45.1759 40.952C43.1093 39.7588 42.3986 37.1065 43.5918 35.0398C44.7851 32.9728 47.4373 32.2624 49.504 33.4556C50.0954 33.7971 50.8518 33.5944 51.1932 33.003L53.0481 29.7903C53.3897 29.1986 53.1868 28.4425 52.5954 28.101C47.5764 25.2033 41.1356 26.9289 38.2377 31.9482C35.3399 36.9673 37.0658 43.4083 42.0848 46.306L43.3698 47.0479C45.4368 48.2413 46.1469 50.8933 44.9538 52.9596C43.7606 55.0263 41.1089 55.7374 39.0419 54.544C38.4505 54.2026 37.6941 54.4052 37.3527 54.9966L35.4978 58.2094C35.1567 58.8009 35.3591 59.5571 35.9504 59.8986Z" fill="#ABB0B4"/>
</svg>
