<svg width="89" height="88" viewBox="0 0 89 88" fill="none" xmlns="http://www.w3.org/2000/svg">
<path d="M14.8306 45.5654C14.8685 54.9879 22.5452 62.7099 31.9756 62.7099C41.4293 62.7099 49.1201 55.0191 49.1201 45.5654V43.145C49.1201 39.2524 52.2874 36.0851 56.1801 36.0851C60.0733 36.0851 63.24 39.2524 63.24 43.145C63.24 44.2589 64.1432 45.1622 65.2571 45.1622H71.3085C72.423 45.1622 73.3257 44.2589 73.3257 43.145C73.3257 33.6914 65.6349 26 56.1806 26C46.7269 26 39.0356 33.6914 39.0356 43.145V45.5654C39.0356 49.4586 35.8683 52.6248 31.9762 52.6248C28.0835 52.6248 24.9162 49.4586 24.9162 45.5654C24.9162 44.4515 24.013 43.5482 22.8991 43.5482H16.8477C15.7338 43.5488 14.8306 44.4515 14.8306 45.5654Z" fill="#ABB0B4"/>
</svg>
