<svg width="20" height="20" viewBox="0 0 20 20" fill="none" xmlns="http://www.w3.org/2000/svg">
<g clip-path="url(#clip0_42_5733)">
<path d="M18.3085 4.43477L18.0093 4.52963L16.4159 4.6716L15.9658 5.39034L15.6392 5.28657L14.3711 4.1432L14.1871 3.5486L13.9407 2.91453L13.1437 2.19961L12.2034 2.01562L12.1817 2.44598L13.1029 3.34488L13.5536 3.87582L13.0469 4.14066L12.6344 4.01906L12.0162 3.76123L12.0372 3.26276L11.2262 2.92917L10.9569 4.10119L10.1395 4.28644L10.2203 4.94025L11.2854 5.14524L11.4694 4.10055L12.3485 4.23042L12.7572 4.46979H13.413L13.8618 5.36869L15.0516 6.57572L14.9644 7.04491L14.005 6.92268L12.3473 7.75983L11.1536 9.19159L10.9983 9.82566H10.5698L9.7715 9.45769L8.99609 9.82566L9.18899 10.6437L9.5264 10.2547L10.1197 10.2363L10.0783 10.9709L10.5698 11.1148L11.0606 11.6661L11.8621 11.4408L12.7776 11.5853L13.8408 11.8711L14.3717 11.9335L15.2719 12.9553L17.0092 13.977L15.8856 16.1237L14.6996 16.675L14.2495 17.9018L12.5331 19.0477L12.3504 19.7085C16.738 18.6517 20.002 14.7104 20.002 9.99818C20.0007 7.93999 19.3768 6.02441 18.3085 4.43477Z" fill="#C9035B"/>
<path d="M11.1517 15.2279L10.4234 13.8776L11.0919 12.4847L10.4234 12.2848L9.67286 11.531L8.01002 11.158L7.45807 10.0031V10.6888H7.21488L5.78185 8.74582V7.14982L4.73143 5.44177L3.06349 5.73907H1.93986L1.37455 5.36856L2.09583 4.79688L1.37646 4.96303C0.509381 6.44381 0.00390625 8.16204 0.00390625 10.0025C0.00390625 15.5239 4.47997 20.0019 10.002 20.0019C10.4273 20.0019 10.8442 19.9643 11.2568 19.9146L11.1524 18.7032C11.1524 18.7032 11.6114 16.9041 11.6114 16.843C11.6107 16.7812 11.1517 15.2279 11.1517 15.2279Z" fill="#C9035B"/>
<path d="M3.71763 3.22447L5.4938 2.97683L6.31249 2.52801L7.23368 2.79348L8.70554 2.71199L9.20974 1.9194L9.94503 2.04036L11.7307 1.87293L12.2229 1.33053L12.9168 0.867074L13.8984 1.01477L14.2562 0.960657C12.9632 0.35205 11.5245 0 9.99978 0C6.89627 0 4.12125 1.41457 2.28906 3.63573H2.29416L3.71763 3.22447ZM10.4225 0.994398L11.4436 0.432264L12.0994 0.811052L11.1502 1.53361L10.2436 1.62465L9.83554 1.35982L10.4225 0.994398ZM7.39792 1.07652L7.84865 1.26432L8.4388 1.07652L8.76029 1.63356L7.39792 1.99134L6.74284 1.6081C6.74221 1.6081 7.38328 1.19557 7.39792 1.07652Z" fill="#C9035B"/>
</g>
<defs>
<clipPath id="clip0_42_5733">
<rect width="20" height="20" fill="white"/>
</clipPath>
</defs>
</svg>
