<svg width="16" height="16" viewBox="0 0 16 16" fill="none" xmlns="http://www.w3.org/2000/svg">
<path d="M2.83261 4.14883C2.6699 4.15317 2.51181 4.20379 2.37689 4.29484C2.24198 4.3859 2.13584 4.51357 2.07094 4.66283C2.00604 4.8121 1.98508 4.9768 2.0105 5.13757C2.03593 5.29834 2.10669 5.44852 2.21449 5.57047L7.34152 11.5629C7.42183 11.657 7.52159 11.7326 7.63393 11.7844C7.74626 11.8362 7.8685 11.863 7.99221 11.863C8.11592 11.863 8.23816 11.8362 8.3505 11.7844C8.46284 11.7326 8.5626 11.657 8.64291 11.5629L13.7749 5.57047C13.8526 5.48584 13.9124 5.38641 13.9508 5.27816C13.9892 5.1699 14.0055 5.05501 13.9985 4.94035C13.9915 4.8257 13.9616 4.71357 13.9104 4.61074C13.8592 4.50792 13.7878 4.41654 13.7004 4.3419C13.6131 4.26727 13.5117 4.21093 13.4021 4.17636C13.2926 4.14178 13.1772 4.12966 13.0629 4.14064C12.9485 4.15163 12.8376 4.18549 12.7366 4.24029C12.6356 4.29508 12.5467 4.36961 12.4752 4.4595L7.99138 9.69344L3.50919 4.4595C3.42712 4.36008 3.32363 4.28057 3.20647 4.22677C3.08931 4.17297 2.9615 4.14628 2.83261 4.14883V4.14883Z" fill="#1B2121"/>
</svg>
