<svg width="1973" height="397" viewBox="0 0 1973 397" fill="none" xmlns="http://www.w3.org/2000/svg">
<g opacity="0.3">
<g clip-path="url(#clip0_42_224)">
<path d="M1603 235C1602.45 235 1602 235.45 1602 236V296.6C1602 296.73 1602.03 296.86 1602.08 296.98C1602.13 297.1 1602.2 297.21 1602.3 297.31L1632.6 327.61C1632.79 327.8 1633.04 327.9 1633.31 327.9H1693.91C1694.04 327.9 1694.17 327.87 1694.29 327.82C1694.53 327.72 1694.73 327.52 1694.83 327.28C1694.88 327.16 1694.91 327.03 1694.91 326.9V266.3C1694.91 266.03 1694.8 265.78 1694.62 265.59L1664.32 235.29C1664.23 235.2 1664.12 235.12 1663.99 235.07C1663.86 235.03 1663.73 235 1663.6 235H1603ZM1662.6 237V295.6H1604V237H1662.6ZM1692.9 279.97L1664.6 251.67V244.78L1692.9 273.08V279.97ZM1692.9 287.56L1664.6 259.26V252.37L1692.9 280.67V287.56ZM1692.9 295.16L1664.6 266.86V259.97L1692.9 288.27V295.16ZM1692.9 302.75L1664.6 274.45V267.56L1692.9 295.86V302.75ZM1692.9 310.35L1664.6 282.05V275.16L1692.9 303.46V310.35ZM1692.9 317.95L1664.6 289.65V282.76L1692.9 311.06V317.95ZM1692.9 324.48L1664.6 296.18V290.35L1692.9 318.65V324.48ZM1647.55 325.9L1619.25 297.6H1626.16L1654.46 325.9H1647.55ZM1655.17 325.9L1626.87 297.6H1633.78L1662.08 325.9H1655.17ZM1662.79 325.9L1634.49 297.6H1641.4L1669.7 325.9H1662.79ZM1670.4 325.9L1642.1 297.6H1649.01L1677.31 325.9H1670.4ZM1678.02 325.9L1649.72 297.6H1656.63L1684.93 325.9H1678.02ZM1618.55 297.6L1646.85 325.9H1639.94L1611.64 297.6H1618.55ZM1685.63 325.9L1657.33 297.6H1663.18L1691.48 325.9H1685.63ZM1605.41 297.6H1610.93L1639.23 325.9H1633.71L1605.41 297.6ZM1692.9 266.71V272.37L1664.6 244.07V238.41L1692.9 266.71Z" fill="#5C29DD"/>
</g>
<g clip-path="url(#clip1_42_224)">
<path d="M1613 52.6951C1613 54.1841 1614.2 55.3902 1615.68 55.3902C1617.16 55.3902 1618.36 54.1841 1618.36 52.6951C1618.36 51.2061 1617.16 50 1615.68 50C1614.2 50 1613 51.2061 1613 52.6951Z" fill="#5C29DD"/>
<path d="M1642.55 52.6951C1642.55 54.1841 1643.75 55.3902 1645.23 55.3902C1646.71 55.3902 1647.91 54.1841 1647.91 52.6951C1647.91 51.2061 1646.71 50 1645.23 50C1643.75 50 1642.55 51.2061 1642.55 52.6951Z" fill="#5C29DD"/>
<path d="M1672.11 52.6951C1672.11 54.1841 1673.31 55.3902 1674.79 55.3902C1676.27 55.3902 1677.47 54.1841 1677.47 52.6951C1677.47 51.2061 1676.27 50 1674.79 50C1673.31 50 1672.11 51.2061 1672.11 52.6951Z" fill="#5C29DD"/>
<path d="M1701.66 52.6951C1701.66 54.1841 1702.86 55.3902 1704.34 55.3902C1705.82 55.3902 1707.02 54.1841 1707.02 52.6951C1707.02 51.2061 1705.82 50 1704.34 50C1702.86 50 1701.66 51.2061 1701.66 52.6951Z" fill="#5C29DD"/>
<path d="M1731.21 52.6951C1731.21 54.1841 1732.41 55.3902 1733.89 55.3902C1735.37 55.3902 1736.57 54.1841 1736.57 52.6951C1736.57 51.2061 1735.37 50 1733.89 50C1732.41 50 1731.21 51.2061 1731.21 52.6951Z" fill="#5C29DD"/>
<path d="M1760.77 52.6951C1760.77 54.1841 1761.97 55.3902 1763.45 55.3902C1764.93 55.3902 1766.13 54.1841 1766.13 52.6951C1766.13 51.2061 1764.93 50 1763.45 50C1761.97 50 1760.77 51.2061 1760.77 52.6951Z" fill="#5C29DD"/>
<path d="M1790.32 52.6951C1790.32 54.1841 1791.52 55.3902 1793 55.3902C1794.48 55.3902 1795.68 54.1841 1795.68 52.6951C1795.68 51.2061 1794.48 50 1793 50C1791.52 50 1790.32 51.2061 1790.32 52.6951Z" fill="#5C29DD"/>
<path d="M1819.87 52.6951C1819.87 54.1841 1821.07 55.3902 1822.55 55.3902C1824.03 55.3902 1825.23 54.1841 1825.23 52.6951C1825.23 51.2061 1824.03 50 1822.55 50C1821.07 50 1819.87 51.2061 1819.87 52.6951Z" fill="#5C29DD"/>
<path d="M1849.43 52.6951C1849.43 54.1841 1850.63 55.3902 1852.11 55.3902C1853.59 55.3902 1854.79 54.1841 1854.79 52.6951C1854.79 51.2061 1853.59 50 1852.11 50C1850.63 50 1849.43 51.2061 1849.43 52.6951Z" fill="#5C29DD"/>
<path d="M1878.98 52.6951C1878.98 54.1841 1880.18 55.3902 1881.66 55.3902C1883.14 55.3902 1884.34 54.1841 1884.34 52.6951C1884.34 51.2061 1883.14 50 1881.66 50C1880.18 50 1878.98 51.2061 1878.98 52.6951Z" fill="#5C29DD"/>
<path d="M1908.53 52.6951C1908.53 54.1841 1909.73 55.3902 1911.21 55.3902C1912.69 55.3902 1913.89 54.1841 1913.89 52.6951C1913.89 51.2061 1912.69 50 1911.21 50C1909.73 50 1908.53 51.2061 1908.53 52.6951Z" fill="#5C29DD"/>
<path d="M1938.09 52.6951C1938.09 54.1841 1939.29 55.3902 1940.77 55.3902C1942.25 55.3902 1943.45 54.1841 1943.45 52.6951C1943.45 51.2061 1942.25 50 1940.77 50C1939.29 50 1938.09 51.2061 1938.09 52.6951Z" fill="#5C29DD"/>
<path d="M1967.64 52.6951C1967.64 54.1841 1968.84 55.3902 1970.32 55.3902C1971.8 55.3902 1973 54.1841 1973 52.6951C1973 51.2061 1971.8 50 1970.32 50C1968.84 50 1967.64 51.2061 1967.64 52.6951Z" fill="#5C29DD"/>
<path d="M1613 78.0232C1613 79.5122 1614.2 80.7183 1615.68 80.7183C1617.16 80.7183 1618.36 79.5122 1618.36 78.0232C1618.36 76.5342 1617.16 75.3281 1615.68 75.3281C1614.2 75.3281 1613 76.5342 1613 78.0232Z" fill="#5C29DD"/>
<path d="M1642.55 78.0232C1642.55 79.5122 1643.75 80.7183 1645.23 80.7183C1646.71 80.7183 1647.91 79.5122 1647.91 78.0232C1647.91 76.5342 1646.71 75.3281 1645.23 75.3281C1643.75 75.3281 1642.55 76.5342 1642.55 78.0232Z" fill="#5C29DD"/>
<path d="M1672.11 78.0232C1672.11 79.5122 1673.31 80.7183 1674.79 80.7183C1676.27 80.7183 1677.47 79.5122 1677.47 78.0232C1677.47 76.5342 1676.27 75.3281 1674.79 75.3281C1673.31 75.3281 1672.11 76.5342 1672.11 78.0232Z" fill="#5C29DD"/>
<path d="M1701.66 78.0232C1701.66 79.5122 1702.86 80.7183 1704.34 80.7183C1705.82 80.7183 1707.02 79.5122 1707.02 78.0232C1707.02 76.5342 1705.82 75.3281 1704.34 75.3281C1702.86 75.3281 1701.66 76.5342 1701.66 78.0232Z" fill="#5C29DD"/>
<path d="M1731.21 78.0232C1731.21 79.5122 1732.41 80.7183 1733.89 80.7183C1735.37 80.7183 1736.57 79.5122 1736.57 78.0232C1736.57 76.5342 1735.37 75.3281 1733.89 75.3281C1732.41 75.3281 1731.21 76.5342 1731.21 78.0232Z" fill="#5C29DD"/>
<path d="M1760.77 78.0232C1760.77 79.5122 1761.97 80.7183 1763.45 80.7183C1764.93 80.7183 1766.13 79.5122 1766.13 78.0232C1766.13 76.5342 1764.93 75.3281 1763.45 75.3281C1761.97 75.3281 1760.77 76.5342 1760.77 78.0232Z" fill="#5C29DD"/>
<path d="M1790.32 78.0232C1790.32 79.5122 1791.52 80.7183 1793 80.7183C1794.48 80.7183 1795.68 79.5122 1795.68 78.0232C1795.68 76.5342 1794.48 75.3281 1793 75.3281C1791.52 75.3281 1790.32 76.5342 1790.32 78.0232Z" fill="#5C29DD"/>
<path d="M1819.87 78.0232C1819.87 79.5122 1821.07 80.7183 1822.55 80.7183C1824.03 80.7183 1825.23 79.5122 1825.23 78.0232C1825.23 76.5342 1824.03 75.3281 1822.55 75.3281C1821.07 75.3281 1819.87 76.5342 1819.87 78.0232Z" fill="#5C29DD"/>
<path d="M1849.43 78.0232C1849.43 79.5122 1850.63 80.7183 1852.11 80.7183C1853.59 80.7183 1854.79 79.5122 1854.79 78.0232C1854.79 76.5342 1853.59 75.3281 1852.11 75.3281C1850.63 75.3281 1849.43 76.5342 1849.43 78.0232Z" fill="#5C29DD"/>
<path d="M1878.98 78.0232C1878.98 79.5122 1880.18 80.7183 1881.66 80.7183C1883.14 80.7183 1884.34 79.5122 1884.34 78.0232C1884.34 76.5342 1883.14 75.3281 1881.66 75.3281C1880.18 75.3281 1878.98 76.5342 1878.98 78.0232Z" fill="#5C29DD"/>
<path d="M1908.53 78.0232C1908.53 79.5122 1909.73 80.7183 1911.21 80.7183C1912.69 80.7183 1913.89 79.5122 1913.89 78.0232C1913.89 76.5342 1912.69 75.3281 1911.21 75.3281C1909.73 75.3281 1908.53 76.5342 1908.53 78.0232Z" fill="#5C29DD"/>
<path d="M1938.09 78.0232C1938.09 79.5122 1939.29 80.7183 1940.77 80.7183C1942.25 80.7183 1943.45 79.5122 1943.45 78.0232C1943.45 76.5342 1942.25 75.3281 1940.77 75.3281C1939.29 75.3281 1938.09 76.5342 1938.09 78.0232Z" fill="#5C29DD"/>
<path d="M1967.64 78.0232C1967.64 79.5122 1968.84 80.7183 1970.32 80.7183C1971.8 80.7183 1973 79.5122 1973 78.0232C1973 76.5342 1971.8 75.3281 1970.32 75.3281C1968.84 75.3281 1967.64 76.5342 1967.64 78.0232Z" fill="#5C29DD"/>
<path d="M1613 103.336C1613 104.825 1614.2 106.031 1615.68 106.031C1617.16 106.031 1618.36 104.825 1618.36 103.336C1618.36 101.847 1617.16 100.641 1615.68 100.641C1614.2 100.641 1613 101.847 1613 103.336Z" fill="#5C29DD"/>
<path d="M1642.55 103.336C1642.55 104.825 1643.75 106.031 1645.23 106.031C1646.71 106.031 1647.91 104.825 1647.91 103.336C1647.91 101.847 1646.71 100.641 1645.23 100.641C1643.75 100.641 1642.55 101.847 1642.55 103.336Z" fill="#5C29DD"/>
<path d="M1672.11 103.336C1672.11 104.825 1673.31 106.031 1674.79 106.031C1676.27 106.031 1677.47 104.825 1677.47 103.336C1677.47 101.847 1676.27 100.641 1674.79 100.641C1673.31 100.641 1672.11 101.847 1672.11 103.336Z" fill="#5C29DD"/>
<path d="M1701.66 103.336C1701.66 104.825 1702.86 106.031 1704.34 106.031C1705.82 106.031 1707.02 104.825 1707.02 103.336C1707.02 101.847 1705.82 100.641 1704.34 100.641C1702.86 100.641 1701.66 101.847 1701.66 103.336Z" fill="#5C29DD"/>
<path d="M1731.21 103.336C1731.21 104.825 1732.41 106.031 1733.89 106.031C1735.37 106.031 1736.57 104.825 1736.57 103.336C1736.57 101.847 1735.37 100.641 1733.89 100.641C1732.41 100.641 1731.21 101.847 1731.21 103.336Z" fill="#5C29DD"/>
<path d="M1760.77 103.336C1760.77 104.825 1761.97 106.031 1763.45 106.031C1764.93 106.031 1766.13 104.825 1766.13 103.336C1766.13 101.847 1764.93 100.641 1763.45 100.641C1761.97 100.641 1760.77 101.847 1760.77 103.336Z" fill="#5C29DD"/>
<path d="M1790.32 103.336C1790.32 104.825 1791.52 106.031 1793 106.031C1794.48 106.031 1795.68 104.825 1795.68 103.336C1795.68 101.847 1794.48 100.641 1793 100.641C1791.52 100.641 1790.32 101.847 1790.32 103.336Z" fill="#5C29DD"/>
<path d="M1819.87 103.336C1819.87 104.825 1821.07 106.031 1822.55 106.031C1824.03 106.031 1825.23 104.825 1825.23 103.336C1825.23 101.847 1824.03 100.641 1822.55 100.641C1821.07 100.641 1819.87 101.847 1819.87 103.336Z" fill="#5C29DD"/>
<path d="M1849.43 103.336C1849.43 104.825 1850.63 106.031 1852.11 106.031C1853.59 106.031 1854.79 104.825 1854.79 103.336C1854.79 101.847 1853.59 100.641 1852.11 100.641C1850.63 100.641 1849.43 101.847 1849.43 103.336Z" fill="#5C29DD"/>
<path d="M1878.98 103.336C1878.98 104.825 1880.18 106.031 1881.66 106.031C1883.14 106.031 1884.34 104.825 1884.34 103.336C1884.34 101.847 1883.14 100.641 1881.66 100.641C1880.18 100.641 1878.98 101.847 1878.98 103.336Z" fill="#5C29DD"/>
<path d="M1908.53 103.336C1908.53 104.825 1909.73 106.031 1911.21 106.031C1912.69 106.031 1913.89 104.825 1913.89 103.336C1913.89 101.847 1912.69 100.641 1911.21 100.641C1909.73 100.641 1908.53 101.847 1908.53 103.336Z" fill="#5C29DD"/>
<path d="M1938.09 103.336C1938.09 104.825 1939.29 106.031 1940.77 106.031C1942.25 106.031 1943.45 104.825 1943.45 103.336C1943.45 101.847 1942.25 100.641 1940.77 100.641C1939.29 100.641 1938.09 101.847 1938.09 103.336Z" fill="#5C29DD"/>
<path d="M1967.64 103.336C1967.64 104.825 1968.84 106.031 1970.32 106.031C1971.8 106.031 1973 104.825 1973 103.336C1973 101.847 1971.8 100.641 1970.32 100.641C1968.84 100.641 1967.64 101.847 1967.64 103.336Z" fill="#5C29DD"/>
<path d="M1613 128.664C1613 130.153 1614.2 131.359 1615.68 131.359C1617.16 131.359 1618.36 130.153 1618.36 128.664C1618.36 127.175 1617.16 125.969 1615.68 125.969C1614.2 125.969 1613 127.175 1613 128.664Z" fill="#5C29DD"/>
<path d="M1642.55 128.664C1642.55 130.153 1643.75 131.359 1645.23 131.359C1646.71 131.359 1647.91 130.153 1647.91 128.664C1647.91 127.175 1646.71 125.969 1645.23 125.969C1643.75 125.969 1642.55 127.175 1642.55 128.664Z" fill="#5C29DD"/>
<path d="M1672.11 128.664C1672.11 130.153 1673.31 131.359 1674.79 131.359C1676.27 131.359 1677.47 130.153 1677.47 128.664C1677.47 127.175 1676.27 125.969 1674.79 125.969C1673.31 125.969 1672.11 127.175 1672.11 128.664Z" fill="#5C29DD"/>
<path d="M1701.66 128.664C1701.66 130.153 1702.86 131.359 1704.34 131.359C1705.82 131.359 1707.02 130.153 1707.02 128.664C1707.02 127.175 1705.82 125.969 1704.34 125.969C1702.86 125.969 1701.66 127.175 1701.66 128.664Z" fill="#5C29DD"/>
<path d="M1731.21 128.664C1731.21 130.153 1732.41 131.359 1733.89 131.359C1735.37 131.359 1736.57 130.153 1736.57 128.664C1736.57 127.175 1735.37 125.969 1733.89 125.969C1732.41 125.969 1731.21 127.175 1731.21 128.664Z" fill="#5C29DD"/>
<path d="M1760.77 128.664C1760.77 130.153 1761.97 131.359 1763.45 131.359C1764.93 131.359 1766.13 130.153 1766.13 128.664C1766.13 127.175 1764.93 125.969 1763.45 125.969C1761.97 125.969 1760.77 127.175 1760.77 128.664Z" fill="#5C29DD"/>
<path d="M1790.32 128.664C1790.32 130.153 1791.52 131.359 1793 131.359C1794.48 131.359 1795.68 130.153 1795.68 128.664C1795.68 127.175 1794.48 125.969 1793 125.969C1791.52 125.969 1790.32 127.175 1790.32 128.664Z" fill="#5C29DD"/>
<path d="M1819.87 128.664C1819.87 130.153 1821.07 131.359 1822.55 131.359C1824.03 131.359 1825.23 130.153 1825.23 128.664C1825.23 127.175 1824.03 125.969 1822.55 125.969C1821.07 125.969 1819.87 127.175 1819.87 128.664Z" fill="#5C29DD"/>
<path d="M1849.43 128.664C1849.43 130.153 1850.63 131.359 1852.11 131.359C1853.59 131.359 1854.79 130.153 1854.79 128.664C1854.79 127.175 1853.59 125.969 1852.11 125.969C1850.63 125.969 1849.43 127.175 1849.43 128.664Z" fill="#5C29DD"/>
<path d="M1878.98 128.664C1878.98 130.153 1880.18 131.359 1881.66 131.359C1883.14 131.359 1884.34 130.153 1884.34 128.664C1884.34 127.175 1883.14 125.969 1881.66 125.969C1880.18 125.969 1878.98 127.175 1878.98 128.664Z" fill="#5C29DD"/>
<path d="M1908.53 128.664C1908.53 130.153 1909.73 131.359 1911.21 131.359C1912.69 131.359 1913.89 130.153 1913.89 128.664C1913.89 127.175 1912.69 125.969 1911.21 125.969C1909.73 125.969 1908.53 127.175 1908.53 128.664Z" fill="#5C29DD"/>
<path d="M1938.09 128.664C1938.09 130.153 1939.29 131.359 1940.77 131.359C1942.25 131.359 1943.45 130.153 1943.45 128.664C1943.45 127.175 1942.25 125.969 1940.77 125.969C1939.29 125.969 1938.09 127.175 1938.09 128.664Z" fill="#5C29DD"/>
<path d="M1967.64 128.664C1967.64 130.153 1968.84 131.359 1970.32 131.359C1971.8 131.359 1973 130.153 1973 128.664C1973 127.175 1971.8 125.969 1970.32 125.969C1968.84 125.969 1967.64 127.175 1967.64 128.664Z" fill="#5C29DD"/>
<path d="M1613 153.992C1613 155.481 1614.2 156.687 1615.68 156.687C1617.16 156.687 1618.36 155.481 1618.36 153.992C1618.36 152.503 1617.16 151.297 1615.68 151.297C1614.2 151.297 1613 152.503 1613 153.992Z" fill="#5C29DD"/>
<path d="M1642.55 153.992C1642.55 155.481 1643.75 156.687 1645.23 156.687C1646.71 156.687 1647.91 155.481 1647.91 153.992C1647.91 152.503 1646.71 151.297 1645.23 151.297C1643.75 151.297 1642.55 152.503 1642.55 153.992Z" fill="#5C29DD"/>
<path d="M1672.11 153.992C1672.11 155.481 1673.31 156.687 1674.79 156.687C1676.27 156.687 1677.47 155.481 1677.47 153.992C1677.47 152.503 1676.27 151.297 1674.79 151.297C1673.31 151.297 1672.11 152.503 1672.11 153.992Z" fill="#5C29DD"/>
<path d="M1704.34 156.687C1705.82 156.687 1707.02 155.48 1707.02 153.992C1707.02 152.504 1705.82 151.297 1704.34 151.297C1702.86 151.297 1701.66 152.504 1701.66 153.992C1701.66 155.48 1702.86 156.687 1704.34 156.687Z" fill="#5C29DD"/>
<path d="M1733.89 156.687C1735.37 156.687 1736.57 155.48 1736.57 153.992C1736.57 152.504 1735.37 151.297 1733.89 151.297C1732.41 151.297 1731.21 152.504 1731.21 153.992C1731.21 155.48 1732.41 156.687 1733.89 156.687Z" fill="#5C29DD"/>
<path d="M1763.45 156.687C1764.93 156.687 1766.13 155.48 1766.13 153.992C1766.13 152.504 1764.93 151.297 1763.45 151.297C1761.97 151.297 1760.77 152.504 1760.77 153.992C1760.77 155.48 1761.97 156.687 1763.45 156.687Z" fill="#5C29DD"/>
<path d="M1790.32 153.992C1790.32 155.481 1791.52 156.687 1793 156.687C1794.48 156.687 1795.68 155.481 1795.68 153.992C1795.68 152.503 1794.48 151.297 1793 151.297C1791.52 151.297 1790.32 152.503 1790.32 153.992Z" fill="#5C29DD"/>
<path d="M1819.87 153.992C1819.87 155.481 1821.07 156.687 1822.55 156.687C1824.03 156.687 1825.23 155.481 1825.23 153.992C1825.23 152.503 1824.03 151.297 1822.55 151.297C1821.07 151.297 1819.87 152.503 1819.87 153.992Z" fill="#5C29DD"/>
<path d="M1849.43 153.992C1849.43 155.481 1850.63 156.687 1852.11 156.687C1853.59 156.687 1854.79 155.481 1854.79 153.992C1854.79 152.503 1853.59 151.297 1852.11 151.297C1850.63 151.297 1849.43 152.503 1849.43 153.992Z" fill="#5C29DD"/>
<path d="M1878.98 153.992C1878.98 155.481 1880.18 156.687 1881.66 156.687C1883.14 156.687 1884.34 155.481 1884.34 153.992C1884.34 152.503 1883.14 151.297 1881.66 151.297C1880.18 151.297 1878.98 152.503 1878.98 153.992Z" fill="#5C29DD"/>
<path d="M1908.53 153.992C1908.53 155.481 1909.73 156.687 1911.21 156.687C1912.69 156.687 1913.89 155.481 1913.89 153.992C1913.89 152.503 1912.69 151.297 1911.21 151.297C1909.73 151.297 1908.53 152.503 1908.53 153.992Z" fill="#5C29DD"/>
<path d="M1938.09 153.992C1938.09 155.481 1939.29 156.687 1940.77 156.687C1942.25 156.687 1943.45 155.481 1943.45 153.992C1943.45 152.503 1942.25 151.297 1940.77 151.297C1939.29 151.297 1938.09 152.503 1938.09 153.992Z" fill="#5C29DD"/>
<path d="M1967.64 153.992C1967.64 155.481 1968.84 156.687 1970.32 156.687C1971.8 156.687 1973 155.481 1973 153.992C1973 152.503 1971.8 151.297 1970.32 151.297C1968.84 151.297 1967.64 152.503 1967.64 153.992Z" fill="#5C29DD"/>
<path d="M1613 179.305C1613 180.794 1614.2 182 1615.68 182C1617.16 182 1618.36 180.794 1618.36 179.305C1618.36 177.816 1617.16 176.61 1615.68 176.61C1614.2 176.61 1613 177.816 1613 179.305Z" fill="#5C29DD"/>
<path d="M1642.55 179.305C1642.55 180.794 1643.75 182 1645.23 182C1646.71 182 1647.91 180.794 1647.91 179.305C1647.91 177.816 1646.71 176.61 1645.23 176.61C1643.75 176.61 1642.55 177.816 1642.55 179.305Z" fill="#5C29DD"/>
<path d="M1672.11 179.305C1672.11 180.794 1673.31 182 1674.79 182C1676.27 182 1677.47 180.794 1677.47 179.305C1677.47 177.816 1676.27 176.61 1674.79 176.61C1673.31 176.61 1672.11 177.816 1672.11 179.305Z" fill="#5C29DD"/>
<path d="M1701.66 179.305C1701.66 180.794 1702.86 182 1704.34 182C1705.82 182 1707.02 180.794 1707.02 179.305C1707.02 177.816 1705.82 176.61 1704.34 176.61C1702.86 176.61 1701.66 177.816 1701.66 179.305Z" fill="#5C29DD"/>
<path d="M1731.21 179.305C1731.21 180.794 1732.41 182 1733.89 182C1735.37 182 1736.57 180.794 1736.57 179.305C1736.57 177.816 1735.37 176.61 1733.89 176.61C1732.41 176.61 1731.21 177.816 1731.21 179.305Z" fill="#5C29DD"/>
<path d="M1760.77 179.305C1760.77 180.794 1761.97 182 1763.45 182C1764.93 182 1766.13 180.794 1766.13 179.305C1766.13 177.816 1764.93 176.61 1763.45 176.61C1761.97 176.61 1760.77 177.816 1760.77 179.305Z" fill="#5C29DD"/>
<path d="M1790.32 179.305C1790.32 180.794 1791.52 182 1793 182C1794.48 182 1795.68 180.794 1795.68 179.305C1795.68 177.816 1794.48 176.61 1793 176.61C1791.52 176.61 1790.32 177.816 1790.32 179.305Z" fill="#5C29DD"/>
<path d="M1819.87 179.305C1819.87 180.794 1821.07 182 1822.55 182C1824.03 182 1825.23 180.794 1825.23 179.305C1825.23 177.816 1824.03 176.61 1822.55 176.61C1821.07 176.61 1819.87 177.816 1819.87 179.305Z" fill="#5C29DD"/>
<path d="M1849.43 179.305C1849.43 180.794 1850.63 182 1852.11 182C1853.59 182 1854.79 180.794 1854.79 179.305C1854.79 177.816 1853.59 176.61 1852.11 176.61C1850.63 176.61 1849.43 177.816 1849.43 179.305Z" fill="#5C29DD"/>
<path d="M1878.98 179.305C1878.98 180.794 1880.18 182 1881.66 182C1883.14 182 1884.34 180.794 1884.34 179.305C1884.34 177.816 1883.14 176.61 1881.66 176.61C1880.18 176.61 1878.98 177.816 1878.98 179.305Z" fill="#5C29DD"/>
<path d="M1908.53 179.305C1908.53 180.794 1909.73 182 1911.21 182C1912.69 182 1913.89 180.794 1913.89 179.305C1913.89 177.816 1912.69 176.61 1911.21 176.61C1909.73 176.61 1908.53 177.816 1908.53 179.305Z" fill="#5C29DD"/>
<path d="M1938.09 179.305C1938.09 180.794 1939.29 182 1940.77 182C1942.25 182 1943.45 180.794 1943.45 179.305C1943.45 177.816 1942.25 176.61 1940.77 176.61C1939.29 176.61 1938.09 177.816 1938.09 179.305Z" fill="#5C29DD"/>
<path d="M1967.64 179.305C1967.64 180.794 1968.84 182 1970.32 182C1971.8 182 1973 180.794 1973 179.305C1973 177.816 1971.8 176.61 1970.32 176.61C1968.84 176.61 1967.64 177.816 1967.64 179.305Z" fill="#5C29DD"/>
</g>
<path d="M1967 301.983V332.09H1936.89V301.983H1967ZM1965.56 330.65V303.423H1938.33V330.65H1965.56Z" fill="#5C29DD"/>
<path d="M1938.35 273.335V303.442H1908.25V273.335H1938.35ZM1936.91 301.983V274.775H1909.69V301.983H1936.91Z" fill="#5C29DD"/>
<path d="M1938.35 244.667V274.775H1908.25V244.667H1938.35ZM1936.91 273.335V246.108H1909.69V273.335H1936.91Z" fill="#5C29DD"/>
<path d="M1909.68 273.335V303.442H1879.58V273.335H1909.68ZM1908.24 301.983V274.775H1881.02V301.983H1908.24Z" fill="#5C29DD"/>
<path d="M1967 273.335V303.442H1936.89V273.335H1967ZM1965.56 301.983V274.775H1938.33V301.983H1965.56Z" fill="#5C29DD"/>
<path d="M1967 244.667V274.774H1936.89V244.667H1967ZM1965.56 273.334V246.107H1938.33V273.334H1965.56Z" fill="#5C29DD"/>
<path d="M1967 216V246.107H1936.89V216H1967ZM1965.56 244.667V217.44H1938.33V244.667H1965.56Z" fill="#5C29DD"/>
<path d="M1938.35 301.983V332.09H1908.25V301.983H1938.35ZM1936.91 330.65V303.423H1909.69V330.65H1936.91Z" fill="#5C29DD"/>
<path d="M1909.68 301.983V332.09H1879.58V301.983H1909.68ZM1908.24 330.65V303.423H1881.02V330.65H1908.24Z" fill="#5C29DD"/>
<path d="M1881.02 301.983V332.09H1850.91V301.983H1881.02ZM1879.58 330.65V303.423H1852.35V330.65H1879.58Z" fill="#5C29DD"/>
<path d="M151.767 362.314C150.857 362.294 150.147 361.534 150.177 360.634C150.197 359.724 150.957 359.014 151.857 359.034C152.757 359.054 153.467 359.814 153.447 360.724C153.427 361.604 152.697 362.314 151.807 362.314C151.797 362.314 151.787 362.314 151.767 362.314ZM156.757 360.624C156.687 359.724 157.347 358.934 158.247 358.854C159.147 358.774 159.937 359.444 160.027 360.344C160.097 361.244 159.427 362.034 158.527 362.124C158.527 362.124 158.527 362.124 158.527 362.114C158.487 362.124 158.437 362.124 158.387 362.124C157.537 362.124 156.827 361.484 156.757 360.624ZM145.027 361.754C144.127 361.624 143.507 360.794 143.637 359.904C143.767 359.004 144.597 358.384 145.487 358.514C146.377 358.634 146.997 359.464 146.877 360.364C146.767 361.184 146.057 361.774 145.257 361.774C145.187 361.764 145.107 361.754 145.027 361.754ZM163.287 359.884C163.117 359.004 163.687 358.134 164.567 357.964C165.447 357.784 166.317 358.354 166.497 359.244C166.667 360.124 166.097 360.994 165.207 361.174C165.097 361.194 164.997 361.204 164.877 361.204C164.127 361.204 163.447 360.664 163.287 359.884ZM138.397 360.414C137.517 360.184 136.997 359.294 137.227 358.414C137.457 357.534 138.347 357.014 139.227 357.244C140.107 357.474 140.627 358.364 140.397 359.244C140.197 359.984 139.537 360.474 138.817 360.474C138.677 360.474 138.537 360.444 138.397 360.414ZM169.697 358.394C169.417 357.534 169.897 356.614 170.747 356.334H170.757C171.617 356.054 172.537 356.534 172.817 357.394C173.097 358.254 172.617 359.174 171.757 359.454C171.597 359.504 171.417 359.524 171.247 359.524C170.557 359.524 169.927 359.084 169.697 358.394ZM131.957 358.324C131.127 357.994 130.707 357.044 131.027 356.204C131.367 355.364 132.307 354.944 133.157 355.274H133.147C133.987 355.604 134.407 356.554 134.077 357.394C133.827 358.044 133.207 358.444 132.557 358.444C132.357 358.444 132.157 358.404 131.957 358.324ZM175.887 356.184C175.507 355.354 175.867 354.394 176.697 354.014C177.517 353.634 178.487 353.994 178.867 354.814C179.247 355.644 178.877 356.604 178.057 356.994C177.837 357.094 177.607 357.144 177.377 357.144C176.757 357.144 176.167 356.784 175.887 356.184ZM125.807 355.524C125.007 355.094 124.697 354.104 125.117 353.314C125.547 352.514 126.537 352.204 127.327 352.624C128.127 353.054 128.437 354.044 128.017 354.834C127.727 355.394 127.147 355.714 126.567 355.714C126.307 355.704 126.047 355.654 125.807 355.524ZM181.787 353.274C181.317 352.494 181.577 351.494 182.347 351.024C183.127 350.554 184.127 350.804 184.597 351.574C185.067 352.354 184.807 353.354 184.037 353.824C183.777 353.984 183.477 354.064 183.197 354.064C182.637 354.064 182.097 353.784 181.787 353.274ZM120.017 352.024C119.277 351.514 119.087 350.494 119.587 349.744C120.097 348.994 121.117 348.814 121.867 349.314C122.617 349.824 122.797 350.844 122.297 351.594C121.977 352.054 121.467 352.304 120.947 352.304C120.617 352.314 120.297 352.224 120.017 352.024ZM187.317 349.704C186.757 348.994 186.887 347.964 187.607 347.414C188.317 346.854 189.347 346.984 189.897 347.714C190.457 348.424 190.327 349.454 189.607 350.004C189.317 350.244 188.957 350.344 188.607 350.344C188.117 350.344 187.637 350.124 187.317 349.704ZM114.657 347.904C113.967 347.304 113.897 346.274 114.497 345.584C115.087 344.904 116.117 344.834 116.807 345.424C117.487 346.014 117.557 347.054 116.967 347.734C116.637 348.114 116.187 348.304 115.727 348.304C115.347 348.294 114.977 348.164 114.657 347.904ZM192.397 345.544C191.767 344.894 191.787 343.854 192.427 343.224C193.077 342.594 194.117 342.614 194.747 343.254C195.377 343.904 195.357 344.944 194.717 345.574C194.397 345.884 193.987 346.044 193.577 346.044C193.157 346.044 192.727 345.874 192.397 345.544ZM109.807 343.184C109.197 342.524 109.247 341.484 109.907 340.864C110.567 340.254 111.607 340.304 112.217 340.974C112.827 341.634 112.787 342.664 112.127 343.284C111.807 343.574 111.417 343.714 111.017 343.714C110.567 343.714 110.137 343.534 109.807 343.184ZM196.987 340.824C196.287 340.254 196.187 339.224 196.757 338.514C197.327 337.814 198.357 337.714 199.067 338.284C199.767 338.854 199.867 339.884 199.297 340.594C198.967 340.984 198.507 341.194 198.027 341.194C197.667 341.194 197.297 341.074 196.987 340.824ZM105.527 337.954C104.997 337.224 105.147 336.204 105.877 335.674C106.617 335.144 107.637 335.294 108.167 336.034C108.697 336.764 108.537 337.784 107.807 338.314C107.507 338.524 107.177 338.624 106.837 338.624C106.347 338.624 105.847 338.394 105.527 337.954ZM201.007 335.614C200.247 335.124 200.037 334.114 200.527 333.354C201.007 332.594 202.027 332.374 202.787 332.864C203.547 333.354 203.767 334.374 203.277 335.124C202.967 335.614 202.437 335.874 201.897 335.874C201.587 335.874 201.287 335.794 201.007 335.614ZM101.857 332.274C101.407 331.484 101.687 330.484 102.477 330.044C103.267 329.594 104.257 329.874 104.707 330.654C105.147 331.444 104.867 332.434 104.097 332.884C103.837 333.034 103.557 333.104 103.287 333.104C102.707 333.104 102.167 332.804 101.857 332.274ZM204.407 329.984C203.597 329.584 203.257 328.614 203.657 327.794C204.057 326.984 205.037 326.654 205.847 327.054C206.657 327.454 206.997 328.434 206.597 329.244C206.307 329.824 205.727 330.164 205.127 330.164C204.897 330.154 204.647 330.094 204.407 329.984ZM98.867 326.214C98.517 325.374 98.907 324.424 99.737 324.064C100.567 323.724 101.527 324.104 101.887 324.944C102.237 325.774 101.847 326.734 101.007 327.084C100.807 327.174 100.577 327.214 100.367 327.214C99.737 327.214 99.137 326.834 98.867 326.214ZM207.147 323.994C206.297 323.694 205.857 322.754 206.157 321.894C206.457 321.044 207.397 320.604 208.257 320.904C209.107 321.204 209.547 322.144 209.247 323.004C209.007 323.674 208.377 324.094 207.707 324.094C207.507 324.094 207.327 324.064 207.147 323.994ZM96.587 319.844C96.337 318.974 96.827 318.064 97.687 317.814C98.557 317.554 99.467 318.054 99.727 318.924C99.977 319.794 99.477 320.704 98.617 320.954C98.457 321.004 98.307 321.024 98.157 321.024C97.447 321.014 96.797 320.564 96.587 319.844ZM209.177 317.734C208.297 317.534 207.757 316.654 207.957 315.774C208.157 314.894 209.037 314.354 209.917 314.554C210.797 314.754 211.337 315.634 211.137 316.514C210.967 317.264 210.297 317.774 209.547 317.774C209.427 317.774 209.307 317.764 209.177 317.734ZM95.057 313.254C94.897 312.364 95.497 311.514 96.387 311.364C97.277 311.204 98.127 311.804 98.277 312.694C98.437 313.584 97.837 314.434 96.947 314.584C96.847 314.604 96.757 314.604 96.667 314.604C95.887 314.614 95.187 314.054 95.057 313.254ZM210.477 311.284C209.577 311.184 208.927 310.374 209.037 309.474C209.137 308.574 209.947 307.934 210.847 308.034C211.747 308.134 212.397 308.954 212.287 309.844C212.197 310.674 211.487 311.304 210.667 311.304C210.597 311.304 210.537 311.294 210.477 311.284ZM94.277 306.534C94.227 305.634 94.917 304.864 95.827 304.804C96.727 304.754 97.497 305.444 97.557 306.354C97.607 307.254 96.917 308.024 96.017 308.084C95.987 308.084 95.947 308.084 95.917 308.084C95.057 308.084 94.337 307.414 94.277 306.534ZM209.397 303.104C209.397 303.084 209.397 303.064 209.397 303.034C209.397 303.014 209.397 303.004 209.397 302.974C209.387 302.074 210.127 301.334 211.027 301.334C211.937 301.334 212.667 302.064 212.677 302.974C212.677 302.994 212.677 303.014 212.677 303.034C212.677 303.054 212.677 303.074 212.677 303.104C212.677 304.004 211.937 304.744 211.037 304.744C210.127 304.734 209.397 304.004 209.397 303.104ZM95.817 301.514C94.917 301.454 94.227 300.684 94.277 299.784C94.327 298.874 95.097 298.184 95.997 298.234C96.907 298.284 97.597 299.064 97.547 299.964C97.497 300.834 96.777 301.514 95.907 301.514C95.887 301.514 95.847 301.514 95.817 301.514ZM209.017 296.604C208.907 295.704 209.557 294.894 210.457 294.784C211.357 294.684 212.167 295.324 212.267 296.224C212.377 297.124 211.737 297.934 210.837 298.034C210.767 298.044 210.707 298.054 210.647 298.054C209.817 298.054 209.117 297.434 209.017 296.604ZM96.377 294.954C95.487 294.794 94.887 293.954 95.037 293.064C95.197 292.174 96.037 291.574 96.927 291.724C97.817 291.884 98.417 292.724 98.257 293.614C98.127 294.414 97.427 294.984 96.647 294.984C96.557 294.984 96.467 294.974 96.377 294.954ZM207.917 290.304C207.717 289.424 208.257 288.544 209.147 288.344C210.027 288.144 210.907 288.684 211.107 289.564C211.307 290.444 210.767 291.324 209.887 291.524C209.757 291.554 209.637 291.574 209.507 291.574C208.777 291.574 208.097 291.054 207.917 290.304ZM97.657 288.504C96.787 288.254 96.297 287.344 96.547 286.474C96.807 285.604 97.717 285.104 98.577 285.364C99.457 285.614 99.947 286.524 99.697 287.394C99.487 288.104 98.827 288.574 98.117 288.574C97.967 288.574 97.817 288.544 97.657 288.504ZM206.107 284.184C205.807 283.334 206.247 282.394 207.097 282.084C207.947 281.784 208.877 282.224 209.197 283.074C209.497 283.924 209.057 284.854 208.207 285.164C208.027 285.234 207.837 285.264 207.647 285.264C206.977 285.264 206.357 284.844 206.107 284.184ZM99.687 282.244C98.857 281.894 98.457 280.934 98.807 280.104C99.157 279.274 100.127 278.874 100.947 279.224C101.777 279.574 102.177 280.544 101.827 281.364C101.567 281.994 100.957 282.374 100.317 282.374C100.117 282.374 99.897 282.334 99.687 282.244ZM203.617 278.304C203.217 277.494 203.547 276.514 204.357 276.114C205.167 275.714 206.147 276.044 206.547 276.854C206.547 276.854 206.547 276.854 206.547 276.864C206.947 277.674 206.617 278.644 205.807 279.054C205.567 279.174 205.327 279.224 205.077 279.224C204.487 279.214 203.897 278.874 203.617 278.304ZM102.417 276.254C101.627 275.804 101.357 274.804 101.807 274.014C102.247 273.224 103.247 272.954 104.037 273.394C104.827 273.834 105.097 274.834 104.657 275.624V275.634C104.357 276.164 103.797 276.464 103.227 276.464C102.947 276.464 102.667 276.394 102.417 276.254ZM200.457 272.744C199.967 271.994 200.187 270.974 200.947 270.484C201.707 269.994 202.717 270.214 203.207 270.964C203.697 271.724 203.487 272.744 202.727 273.234C202.447 273.414 202.147 273.494 201.847 273.494C201.297 273.504 200.777 273.234 200.457 272.744ZM105.817 270.624C105.077 270.094 104.917 269.064 105.447 268.344C105.977 267.604 107.007 267.454 107.737 267.974C108.467 268.504 108.627 269.524 108.097 270.264C107.777 270.704 107.277 270.934 106.767 270.934C106.447 270.934 106.107 270.834 105.817 270.624ZM196.687 267.594C196.117 266.894 196.217 265.864 196.917 265.294C197.617 264.724 198.647 264.824 199.217 265.514C199.787 266.214 199.687 267.254 198.997 267.824C198.687 268.074 198.317 268.194 197.957 268.194C197.487 268.184 197.017 267.984 196.687 267.594ZM109.837 265.404C109.177 264.794 109.127 263.754 109.737 263.094C110.347 262.424 111.387 262.384 112.047 262.984C112.717 263.594 112.757 264.634 112.157 265.304C111.827 265.654 111.387 265.834 110.947 265.834C110.547 265.834 110.147 265.694 109.837 265.404ZM192.357 262.894C191.707 262.274 191.697 261.234 192.327 260.584C192.947 259.934 193.987 259.914 194.637 260.544C195.287 261.174 195.307 262.214 194.677 262.864C194.357 263.194 193.927 263.364 193.497 263.364C193.087 263.354 192.677 263.204 192.357 262.894ZM114.417 260.694C113.817 260.004 113.897 258.974 114.577 258.374C114.577 258.374 114.577 258.374 114.577 258.384C115.267 257.784 116.297 257.864 116.887 258.544C117.487 259.224 117.407 260.254 116.727 260.854C116.417 261.124 116.027 261.254 115.657 261.254C115.197 261.244 114.737 261.054 114.417 260.694ZM187.527 258.714C186.817 258.164 186.677 257.134 187.237 256.424C187.787 255.704 188.817 255.574 189.527 256.124C190.247 256.674 190.377 257.704 189.827 258.414C189.497 258.844 189.017 259.054 188.527 259.054C188.177 259.054 187.827 258.944 187.527 258.714ZM119.497 256.514C118.977 255.764 119.167 254.744 119.917 254.234C120.657 253.714 121.687 253.904 122.197 254.654C122.707 255.394 122.517 256.424 121.767 256.934C121.477 257.134 121.157 257.234 120.837 257.234C120.327 257.224 119.817 256.974 119.497 256.514ZM182.247 255.114C181.467 254.644 181.217 253.644 181.687 252.864C182.157 252.094 183.157 251.844 183.937 252.304C184.707 252.774 184.957 253.774 184.497 254.554C184.197 255.064 183.647 255.344 183.087 255.344C182.797 255.354 182.517 255.274 182.247 255.114ZM125.027 252.944C124.597 252.144 124.907 251.154 125.707 250.734C126.497 250.304 127.487 250.614 127.917 251.404C128.347 252.204 128.037 253.194 127.237 253.624C126.987 253.754 126.727 253.814 126.477 253.814C125.887 253.814 125.317 253.504 125.027 252.944ZM176.597 252.134C175.767 251.754 175.407 250.794 175.787 249.964C176.167 249.144 177.127 248.774 177.947 249.154C177.947 249.154 177.947 249.154 177.957 249.154C178.777 249.534 179.147 250.494 178.767 251.324C178.487 251.934 177.887 252.284 177.277 252.284C177.047 252.284 176.817 252.234 176.597 252.134ZM130.917 250.034C130.587 249.194 131.007 248.244 131.847 247.914C132.687 247.584 133.627 247.994 133.967 248.834C134.297 249.674 133.877 250.624 133.037 250.954C132.837 251.034 132.647 251.064 132.437 251.064C131.787 251.074 131.177 250.674 130.917 250.034ZM170.637 249.824C169.777 249.544 169.307 248.624 169.577 247.764C169.857 246.904 170.777 246.434 171.637 246.704C172.497 246.984 172.967 247.904 172.697 248.764C172.467 249.464 171.827 249.904 171.137 249.904C170.967 249.904 170.797 249.884 170.637 249.824ZM137.117 247.814C136.887 246.934 137.407 246.044 138.277 245.814C139.157 245.574 140.047 246.104 140.287 246.974C140.517 247.854 139.997 248.744 139.117 248.974C138.977 249.014 138.837 249.034 138.697 249.034C137.967 249.034 137.307 248.544 137.117 247.814ZM164.447 248.214C163.567 248.044 162.987 247.174 163.157 246.294C163.337 245.414 164.197 244.824 165.087 245.014C165.967 245.194 166.547 246.054 166.367 246.934C166.207 247.714 165.527 248.254 164.767 248.254C164.667 248.244 164.557 248.234 164.447 248.214ZM143.517 246.324C143.397 245.424 144.007 244.594 144.907 244.464C145.797 244.334 146.637 244.954 146.757 245.854C146.887 246.744 146.267 247.574 145.377 247.704C145.297 247.714 145.217 247.724 145.137 247.724C144.337 247.724 143.637 247.134 143.517 246.324ZM158.127 247.334C157.227 247.254 156.557 246.464 156.627 245.564C156.697 244.654 157.497 243.994 158.397 244.064C159.297 244.134 159.967 244.934 159.897 245.834C159.827 246.684 159.107 247.334 158.257 247.334C158.217 247.334 158.167 247.334 158.127 247.334ZM150.047 245.574C150.027 244.664 150.737 243.904 151.637 243.884C152.547 243.864 153.297 244.564 153.327 245.474C153.357 246.374 152.647 247.124 151.737 247.164C151.717 247.164 151.707 247.164 151.687 247.164C150.797 247.154 150.077 246.454 150.047 245.574Z" fill="#5C29DD"/>
<g clip-path="url(#clip2_42_224)">
<path d="M141.75 290.649C141.26 290.249 140.76 289.869 140.26 289.489L56.9697 372.779C57.3497 373.279 57.7397 373.779 58.1297 374.269L141.75 290.649Z" fill="#5C29DD"/>
<path d="M121.4 279.959C120.71 279.759 120.01 279.569 119.32 279.389L46.8701 351.839C47.0501 352.539 47.2401 353.229 47.4401 353.919L121.4 279.959Z" fill="#5C29DD"/>
<path d="M135.7 286.359C135.15 286.019 134.59 285.689 134.04 285.369L52.8496 366.549C53.1696 367.109 53.4996 367.659 53.8396 368.209L135.7 286.359Z" fill="#5C29DD"/>
<path d="M128.94 282.769C128.33 282.489 127.71 282.219 127.09 281.969L49.4502 359.609C49.7102 360.229 49.9702 360.849 50.2502 361.459L128.94 282.769Z" fill="#5C29DD"/>
<path d="M112.91 278.109C112.12 277.999 111.33 277.899 110.54 277.819L45.2998 343.059C45.3798 343.849 45.4798 344.639 45.5898 345.429L112.91 278.109Z" fill="#5C29DD"/>
<path d="M146.5 294.919C146.28 294.699 146.05 294.479 145.83 294.269L61.75 378.349C61.97 378.569 62.18 378.799 62.4 379.019C62.62 379.239 62.85 379.459 63.07 379.669L147.15 295.589C146.94 295.369 146.72 295.139 146.5 294.919Z" fill="#5C29DD"/>
<path d="M103.15 277.519C102.22 277.539 101.3 277.579 100.37 277.649L45.13 332.889C45.06 333.819 45.02 334.739 45 335.669L103.15 277.519Z" fill="#5C29DD"/>
<path d="M46.4404 323.889L91.3704 278.959C90.1704 279.229 88.9804 279.539 87.8004 279.879L47.3604 320.309C47.0104 321.499 46.7104 322.689 46.4404 323.889Z" fill="#5C29DD"/>
<path d="M163.78 341.049C163.84 340.119 163.89 339.199 163.91 338.269L105.75 396.419C106.68 396.399 107.6 396.359 108.53 396.289L163.78 341.049Z" fill="#5C29DD"/>
<path d="M163.6 330.879C163.52 330.089 163.42 329.299 163.31 328.509L95.9902 395.829C96.7802 395.939 97.5702 396.039 98.3602 396.119L163.6 330.879Z" fill="#5C29DD"/>
<path d="M74.25 285.729C70.02 288.229 66.04 291.289 62.4 294.919C58.77 298.549 55.7 302.539 53.21 306.769L74.25 285.729Z" fill="#5C29DD"/>
<path d="M161.55 353.629C161.89 352.449 162.2 351.259 162.47 350.059L117.54 394.989C118.74 394.719 119.93 394.409 121.11 394.069L161.55 353.629Z" fill="#5C29DD"/>
<path d="M134.66 388.209C138.89 385.709 142.87 382.649 146.51 379.019C150.14 375.389 153.21 371.399 155.7 367.169L134.66 388.209Z" fill="#5C29DD"/>
<path d="M156.05 307.389C155.73 306.829 155.4 306.279 155.06 305.729L73.21 387.579C73.76 387.919 74.32 388.249 74.87 388.569L156.05 307.389Z" fill="#5C29DD"/>
<path d="M151.93 301.159C151.55 300.659 151.16 300.159 150.77 299.669L67.1504 383.289C67.6404 383.689 68.1404 384.069 68.6404 384.449L151.93 301.159Z" fill="#5C29DD"/>
<path d="M162.04 322.099C161.86 321.399 161.67 320.709 161.47 320.019L87.5 393.979C88.19 394.179 88.88 394.369 89.58 394.549L162.04 322.099Z" fill="#5C29DD"/>
<path d="M159.46 314.329C159.2 313.709 158.94 313.089 158.66 312.479L79.9697 391.169C80.5797 391.449 81.1997 391.719 81.8197 391.969L159.46 314.329Z" fill="#5C29DD"/>
</g>
<g opacity="0.7" clip-path="url(#clip3_42_224)">
<path d="M280 80.6269L300.05 100.687L280 120.737L280 126.097L305.41 100.687L280 75.2769L280 80.6269Z" fill="#5C29DD"/>
<path d="M302.48 65.647L297.12 65.647L332.16 100.687L297.12 135.727L302.48 135.727L337.51 100.687L302.48 65.647Z" fill="#5C29DD"/>
<path d="M286.42 65.647L281.07 65.647L316.11 100.687L281.07 135.727L286.42 135.727L321.46 100.687L286.42 65.647Z" fill="#5C29DD"/>
<path d="M415.96 66.757L414.84 65.647L409.49 65.647L415.96 72.117L415.96 66.757Z" fill="#5C29DD"/>
<path d="M415.96 82.817L398.79 65.647L393.44 65.647L415.96 88.167L415.96 82.817Z" fill="#5C29DD"/>
<path d="M280 96.6771L284 100.687L280 104.687L280 110.047L289.36 100.687L280 91.3271L280 96.6771Z" fill="#5C29DD"/>
<path d="M415.96 98.867L382.74 65.647L377.38 65.647L412.42 100.687L377.38 135.727L382.74 135.727L415.96 102.507L415.96 98.867Z" fill="#5C29DD"/>
<path d="M415.96 113.197L393.44 135.727L398.79 135.727L415.96 118.557L415.96 113.197Z" fill="#5C29DD"/>
<path d="M415.96 129.257L409.49 135.727L414.84 135.727L415.96 134.607L415.96 129.257Z" fill="#5C29DD"/>
<path d="M334.58 65.647L329.23 65.647L364.26 100.687L329.23 135.727L334.58 135.727L369.62 100.687L334.58 65.647Z" fill="#5C29DD"/>
<path d="M318.53 65.647L313.17 65.647L348.21 100.687L313.17 135.727L318.53 135.727L353.57 100.687L318.53 65.647Z" fill="#5C29DD"/>
<path d="M366.69 65.647L361.33 65.647L396.37 100.687L361.33 135.727L366.69 135.727L401.72 100.687L366.69 65.647Z" fill="#5C29DD"/>
<path d="M350.63 65.647L345.28 65.647L380.32 100.687L345.28 135.727L350.63 135.727L385.67 100.687L350.63 65.647Z" fill="#5C29DD"/>
</g>
<g clip-path="url(#clip4_42_224)">
<path d="M427.88 232.099H368.49V172.709H427.88V232.099ZM369.49 231.099H426.88V173.709H369.49V231.099Z" fill="#5C29DD"/>
<path d="M417.88 242.099H358.49V182.709H417.88V242.099ZM359.49 241.099H416.88V183.709H359.49V241.099Z" fill="#5C29DD"/>
</g>
<g clip-path="url(#clip5_42_224)">
<path d="M378.425 334.199L325.345 249.279L246.105 358.059L378.425 334.199ZM376.325 332.729L320.435 308.019L325.665 251.689L376.325 332.729ZM324.645 251.939L319.425 308.059L249.255 355.359L324.645 251.939ZM249.435 356.439L319.955 308.899L375.915 333.639L249.435 356.439Z" fill="#5C29DD"/>
</g>
<g clip-path="url(#clip6_42_224)">
<path d="M28.4756 0.53125H27.5059V211.531H28.4756V0.53125Z" fill="#5C29DD"/>
<path d="M59.5839 0.53125H58.6143V211.531H59.5839V0.53125Z" fill="#5C29DD"/>
<path d="M90.6797 0.53125H89.71V211.531H90.6797V0.53125Z" fill="#5C29DD"/>
<path d="M121.789 0.53125H120.819V211.531H121.789V0.53125Z" fill="#5C29DD"/>
<path d="M152.897 0.53125H151.928V211.531H152.897V0.53125Z" fill="#5C29DD"/>
<path d="M184.007 0.53125H183.037V211.531H184.007V0.53125Z" fill="#5C29DD"/>
<path d="M211.25 27.7876H0.25V28.7573H211.25V27.7876Z" fill="#5C29DD"/>
<path d="M211.25 58.8965H0.25V59.8662H211.25V58.8965Z" fill="#5C29DD"/>
<path d="M211.25 89.9922H0.25V90.9619H211.25V89.9922Z" fill="#5C29DD"/>
<path d="M211.25 121.101H0.25V122.071H211.25V121.101Z" fill="#5C29DD"/>
<path d="M211.25 152.21H0.25V153.18H211.25V152.21Z" fill="#5C29DD"/>
<path d="M211.25 183.318H0.25V184.288H211.25V183.318Z" fill="#5C29DD"/>
</g>
</g>
<defs>
<clipPath id="clip0_42_224">
<rect width="92.9" height="92.9" fill="white" transform="translate(1602 235)"/>
</clipPath>
<clipPath id="clip1_42_224">
<rect width="360" height="132" fill="white" transform="translate(1613 50)"/>
</clipPath>
<clipPath id="clip2_42_224">
<rect width="118.9" height="118.9" fill="white" transform="translate(45 277.519)"/>
</clipPath>
<clipPath id="clip3_42_224">
<rect width="70.08" height="135.96" fill="white" transform="translate(415.96 65.647) rotate(90)"/>
</clipPath>
<clipPath id="clip4_42_224">
<rect width="69.39" height="69.39" fill="white" transform="translate(358.49 172.709)"/>
</clipPath>
<clipPath id="clip5_42_224">
<rect width="132.32" height="108.78" fill="white" transform="translate(246.105 249.279)"/>
</clipPath>
<clipPath id="clip6_42_224">
<rect width="211" height="211" fill="white" transform="translate(0.25 0.53125)"/>
</clipPath>
</defs>
</svg>
