<svg width="158" height="34" viewBox="0 0 158 34" fill="none" xmlns="http://www.w3.org/2000/svg">
<path d="M0.91954 30.4461C6.48928 30.4461 11.0044 25.9309 11.0044 20.3613C11.0044 14.7915 6.48928 10.2764 0.91954 10.2764V17.3357C2.59045 17.3357 3.94498 18.6903 3.94498 20.3613C3.94498 22.0322 2.59045 23.3867 0.91954 23.3867V30.4461Z" fill="#F9F8F3"/>
<path d="M34.5358 13.6383C32.8124 13.0924 30.9772 12.7979 29.0731 12.7979C19.094 12.7979 11.0044 20.8876 11.0044 30.8666C11.0044 31.8682 11.0859 32.8508 11.2426 33.808H22.4693C22.0686 32.9095 21.8457 31.9141 21.8457 30.8666C21.8457 26.875 25.0815 23.6391 29.0731 23.6391C31.2548 23.6391 33.2106 24.6057 34.5358 26.134V13.6383Z" fill="#F9F8F3"/>
<path d="M2.69258 0.191406C3.52869 7.75498 9.94114 13.638 17.7276 13.638C25.5139 13.638 31.9264 7.75498 32.7625 0.191406H21.9443C21.2764 1.86568 19.6401 3.04878 17.7276 3.04878C15.815 3.04878 14.1788 1.86568 13.5108 0.191406H2.69258Z" fill="#F9F8F3"/>
<path d="M46.2352 7.02285H51.8664C53.3893 7.02285 54.5581 7.14238 55.3727 7.38145C56.1961 7.62051 56.8115 7.96582 57.2187 8.41738C57.6349 8.86895 57.9138 9.4179 58.0555 10.0643C58.206 10.7018 58.2812 11.6934 58.2812 13.0393V14.9119C58.2812 16.2843 58.1396 17.2848 57.8562 17.9135C57.5729 18.5421 57.0505 19.0247 56.2891 19.3611C55.5365 19.6976 54.5492 19.8658 53.3273 19.8658H51.8266V28.5252H46.2352V7.02285ZM51.8266 10.7018V16.1736C51.9859 16.1825 52.1232 16.1869 52.2383 16.1869C52.7518 16.1869 53.106 16.063 53.3008 15.815C53.5044 15.5583 53.6062 15.0314 53.6062 14.2346V12.4682C53.6062 11.7333 53.4911 11.2551 53.2609 11.0338C53.0307 10.8124 52.5526 10.7018 51.8266 10.7018Z" fill="#F9F8F3"/>
<path d="M68.8531 7.02285L72.0539 28.5252H66.3297L66.0508 24.6604H64.0453L63.7133 28.5252H57.9227L60.7648 7.02285H68.8531ZM65.8914 20.8486C65.6081 18.4137 65.3247 15.4077 65.0414 11.8307C64.4747 15.939 64.1206 18.945 63.9789 20.8486H65.8914Z" fill="#F9F8F3"/>
<path d="M85.4945 7.02285V28.5252H80.5937L77.6852 18.7502V28.5252H73.0102V7.02285H77.6852L80.8195 16.7049V7.02285H85.4945Z" fill="#F9F8F3"/>
<path d="M97.4078 7.02285L100.609 28.5252H94.8844L94.6055 24.6604H92.6L92.268 28.5252H86.4773L89.3195 7.02285H97.4078ZM94.4461 20.8486C94.1628 18.4137 93.8794 15.4077 93.5961 11.8307C93.0294 15.939 92.6753 18.945 92.5336 20.8486H94.4461Z" fill="#F9F8F3"/>
<path d="M101.565 7.02285H105.748C108.449 7.02285 110.273 7.14681 111.22 7.39473C112.177 7.64264 112.903 8.04993 113.398 8.6166C113.894 9.18327 114.204 9.81634 114.328 10.5158C114.452 11.2064 114.514 12.57 114.514 14.6064V22.1369C114.514 24.0671 114.421 25.3598 114.235 26.015C114.058 26.6614 113.744 27.1705 113.292 27.5424C112.841 27.9054 112.283 28.1622 111.619 28.3127C110.955 28.4544 109.954 28.5252 108.617 28.5252H101.565V7.02285ZM107.156 10.7018V24.8463C107.962 24.8463 108.458 24.6869 108.644 24.3682C108.83 24.0406 108.923 23.1596 108.923 21.7252V13.3713C108.923 12.3973 108.892 11.7731 108.83 11.4986C108.768 11.2242 108.626 11.0249 108.405 10.901C108.183 10.7682 107.767 10.7018 107.156 10.7018Z" fill="#F9F8F3"/>
<path d="M129.376 19.6135C129.376 21.7739 129.323 23.3057 129.216 24.2088C129.119 25.1031 128.8 25.9221 128.26 26.6658C127.729 27.4096 127.007 27.9807 126.095 28.3791C125.183 28.7775 124.121 28.9768 122.908 28.9768C121.757 28.9768 120.721 28.7908 119.8 28.4189C118.888 28.0382 118.153 27.4716 117.595 26.7189C117.037 25.9663 116.705 25.1473 116.599 24.2619C116.493 23.3765 116.44 21.827 116.44 19.6135V15.9346C116.44 13.7742 116.489 12.2468 116.586 11.3525C116.692 10.4494 117.011 9.62598 117.542 8.88223C118.082 8.13848 118.808 7.56738 119.72 7.16895C120.632 6.77051 121.695 6.57129 122.908 6.57129C124.059 6.57129 125.09 6.76165 126.002 7.14238C126.923 7.51426 127.662 8.0765 128.22 8.8291C128.778 9.58171 129.11 10.4007 129.216 11.2861C129.323 12.1715 129.376 13.721 129.376 15.9346V19.6135ZM123.784 12.5479C123.784 11.5473 123.727 10.9098 123.612 10.6354C123.505 10.352 123.28 10.2104 122.934 10.2104C122.642 10.2104 122.416 10.3255 122.257 10.5557C122.107 10.777 122.031 11.4411 122.031 12.5479V22.5885C122.031 23.8369 122.08 24.6072 122.177 24.8994C122.284 25.1916 122.523 25.3377 122.895 25.3377C123.275 25.3377 123.519 25.1695 123.625 24.833C123.731 24.4966 123.784 23.6952 123.784 22.4291V12.5479Z" fill="#F9F8F3"/>
<path d="M142.803 7.02285L140.851 16.5322L143.799 28.5252H138.62C138 26.3825 137.433 23.7749 136.92 20.7025C136.778 22.0572 136.583 23.496 136.335 25.0189L135.804 28.5252H130.359L132.377 16.5322L130.359 7.02285H135.764C135.861 7.61608 136.056 8.60332 136.348 9.98457C136.579 11.0382 136.769 12.0033 136.92 12.8799L138.115 7.02285H142.803Z" fill="#F9F8F3"/>
<path d="M157.08 7.02285V28.5252H152.18L149.271 18.7502V28.5252H144.596V7.02285H149.271L152.405 16.7049V7.02285H157.08Z" fill="#F9F8F3"/>
</svg>
