<svg width="144" height="34" viewBox="0 0 144 34" fill="none" xmlns="http://www.w3.org/2000/svg">
<path d="M15.4512 5.24143V0.413086H0.227692V33.5867H15.4512V28.7583C12.3326 28.7583 9.34179 27.5194 7.1367 25.3143C4.93157 23.1092 3.69274 20.1184 3.69274 16.9999C3.69274 13.8813 4.93157 10.8905 7.1367 8.6854C9.34179 6.48027 12.3326 5.24143 15.4512 5.24143Z" fill="#F9F8F3"/>
<path d="M15.4498 5.24219V28.7591C18.5683 28.7591 21.5592 27.5202 23.7643 25.315C25.9695 23.1099 27.2082 20.1192 27.2082 17.0006C27.2082 13.8821 25.9695 10.8912 23.7643 8.68616C21.5592 6.48103 18.5683 5.24219 15.4498 5.24219Z" fill="#F9F8F3"/>
<path d="M141.273 12.1599C142.653 12.1599 143.772 11.0408 143.772 9.66051C143.772 8.28017 142.653 7.16113 141.273 7.16113C139.893 7.16113 138.774 8.28017 138.774 9.66051C138.774 11.0408 139.893 12.1599 141.273 12.1599Z" fill="#F9F8F3"/>
<path d="M42.9719 22.0411L47.5385 6.70403H51.9851L45.2352 26.0884H42.3063L42.9719 22.0411ZM38.7649 6.70403L43.3181 22.0411L44.0104 26.0884H41.0548L34.3448 6.70403H38.7649Z" fill="#F9F8F3"/>
<path d="M60.7188 22.8399V16.4229C60.7188 15.9613 60.6433 15.5664 60.4924 15.238C60.3416 14.9007 60.1063 14.6389 59.7868 14.4525C59.4762 14.2661 59.0723 14.1729 58.5753 14.1729C58.1493 14.1729 57.7809 14.2483 57.4703 14.3992C57.1596 14.5412 56.92 14.7498 56.7514 15.0249C56.5827 15.2912 56.4984 15.6063 56.4984 15.9702H52.6641C52.6641 15.3578 52.8061 14.7764 53.0902 14.2261C53.3742 13.6758 53.7869 13.1921 54.3283 12.775C54.8697 12.3489 55.5132 12.0161 56.2588 11.7765C57.0132 11.5368 57.8564 11.417 58.7883 11.417C59.9066 11.417 60.9007 11.6034 61.7705 11.9762C62.6403 12.3489 63.3238 12.9081 63.8208 13.6537C64.3267 14.3992 64.5797 15.3311 64.5797 16.4495V22.6136C64.5797 23.4035 64.6285 24.0515 64.7261 24.5574C64.8237 25.0544 64.9658 25.4893 65.1521 25.8621V26.0884H61.2779C61.0915 25.6979 60.9495 25.2097 60.8519 24.6239C60.7631 24.0293 60.7188 23.4346 60.7188 22.8399ZM61.2247 17.3149L61.2513 19.4849H59.1078C58.6019 19.4849 58.1626 19.5426 57.7898 19.658C57.417 19.7734 57.1108 19.9376 56.8712 20.1506C56.6315 20.3548 56.454 20.5944 56.3386 20.8695C56.2321 21.1447 56.1789 21.4465 56.1789 21.7749C56.1789 22.1033 56.2543 22.4006 56.4052 22.6669C56.5561 22.9243 56.7735 23.1284 57.0576 23.2793C57.3416 23.4213 57.6744 23.4923 58.0561 23.4923C58.633 23.4923 59.1345 23.3769 59.5605 23.1461C59.9865 22.9154 60.3149 22.6314 60.5457 22.2941C60.7853 21.9568 60.9096 21.6373 60.9185 21.3355L61.9303 22.9598C61.7883 23.3237 61.593 23.7009 61.3445 24.0914C61.1049 24.4819 60.7986 24.8503 60.4259 25.1964C60.0531 25.5337 59.6049 25.8133 59.0812 26.0352C58.5576 26.2482 57.9363 26.3547 57.2173 26.3547C56.3031 26.3547 55.4733 26.1727 54.7277 25.8088C53.991 25.4361 53.4052 24.9257 52.9703 24.2778C52.5443 23.621 52.3313 22.8754 52.3313 22.0411C52.3313 21.2867 52.4733 20.6166 52.7573 20.0308C53.0413 19.445 53.4585 18.9524 54.0088 18.553C54.568 18.1447 55.2647 17.8385 56.099 17.6344C56.9333 17.4214 57.9008 17.3149 59.0013 17.3149H61.2247Z" fill="#F9F8F3"/>
<path d="M71.2896 14.7587V26.0884H67.4554V11.6833H71.05L71.2896 14.7587ZM70.7305 18.3799H69.692C69.692 17.3149 69.8296 16.3563 70.1048 15.5042C70.3799 14.6433 70.766 13.911 71.263 13.3075C71.7601 12.6951 72.3503 12.2291 73.0337 11.9096C73.726 11.5812 74.4982 11.417 75.3503 11.417C76.0248 11.417 76.6417 11.5146 77.2008 11.7099C77.76 11.9052 78.2393 12.2158 78.6387 12.6418C79.047 13.0679 79.3576 13.6315 79.5706 14.3326C79.7925 15.0338 79.9035 15.8903 79.9035 16.9021V26.0884H76.0426V16.8888C76.0426 16.2498 75.9538 15.7527 75.7763 15.3977C75.5988 15.0427 75.3369 14.7942 74.9908 14.6522C74.6535 14.5013 74.2364 14.4258 73.7393 14.4258C73.2245 14.4258 72.7763 14.5279 72.3947 14.732C72.0219 14.9362 71.7112 15.2202 71.4627 15.5841C71.2231 15.9391 71.0411 16.3563 70.9169 16.8356C70.7926 17.3149 70.7305 17.8296 70.7305 18.3799Z" fill="#F9F8F3"/>
<path d="M87.7051 26.0884H83.8442V10.4052C83.8442 9.31347 84.0573 8.39484 84.4833 7.64929C84.9182 6.89486 85.5262 6.32682 86.3072 5.94517C87.0972 5.55464 88.0335 5.35938 89.1164 5.35938C89.4714 5.35938 89.8131 5.386 90.1415 5.43926C90.4699 5.48363 90.7894 5.54133 91.1001 5.61233L91.0601 8.50135C90.8915 8.45697 90.714 8.42591 90.5276 8.40816C90.3412 8.3904 90.1237 8.38153 89.8752 8.38153C89.4137 8.38153 89.0187 8.46141 88.6903 8.62117C88.3708 8.77206 88.1267 8.99838 87.9581 9.30016C87.7895 9.60193 87.7051 9.97027 87.7051 10.4052V26.0884ZM90.5808 11.6833V14.3992H81.7008V11.6833H90.5808Z" fill="#F9F8F3"/>
<path d="M100.366 22.8399V16.4229C100.366 15.9613 100.291 15.5664 100.14 15.238C99.989 14.9007 99.7538 14.6389 99.4343 14.4525C99.1236 14.2661 98.7198 14.1729 98.2228 14.1729C97.7967 14.1729 97.4284 14.2483 97.1177 14.3992C96.8071 14.5412 96.5675 14.7498 96.3988 15.0249C96.2302 15.2912 96.1459 15.6063 96.1459 15.9702H92.3116C92.3116 15.3578 92.4536 14.7764 92.7376 14.2261C93.0216 13.6758 93.4344 13.1921 93.9758 12.775C94.5172 12.3489 95.1607 12.0161 95.9062 11.7765C96.6607 11.5368 97.5038 11.417 98.4358 11.417C99.5541 11.417 100.548 11.6034 101.418 11.9762C102.288 12.3489 102.971 12.9081 103.468 13.6537C103.974 14.3992 104.227 15.3311 104.227 16.4495V22.6136C104.227 23.4035 104.276 24.0515 104.374 24.5574C104.471 25.0544 104.613 25.4893 104.8 25.8621V26.0884H100.925C100.739 25.6979 100.597 25.2097 100.499 24.6239C100.411 24.0293 100.366 23.4346 100.366 22.8399ZM100.872 17.3149L100.899 19.4849H98.7553C98.2494 19.4849 97.8101 19.5426 97.4373 19.658C97.0645 19.7734 96.7583 19.9376 96.5186 20.1506C96.279 20.3548 96.1015 20.5944 95.9861 20.8695C95.8796 21.1447 95.8263 21.4465 95.8263 21.7749C95.8263 22.1033 95.9018 22.4006 96.0527 22.6669C96.2036 22.9243 96.421 23.1284 96.705 23.2793C96.9891 23.4213 97.3219 23.4923 97.7035 23.4923C98.2805 23.4923 98.7819 23.3769 99.208 23.1461C99.634 22.9154 99.9624 22.6314 100.193 22.2941C100.433 21.9568 100.557 21.6373 100.566 21.3355L101.578 22.9598C101.436 23.3237 101.24 23.7009 100.992 24.0914C100.752 24.4819 100.446 24.8503 100.073 25.1964C99.7006 25.5337 99.2523 25.8133 98.7287 26.0352C98.205 26.2482 97.5837 26.3547 96.8648 26.3547C95.9506 26.3547 95.1207 26.1727 94.3752 25.8088C93.6385 25.4361 93.0527 24.9257 92.6178 24.2778C92.1918 23.621 91.9788 22.8754 91.9788 22.0411C91.9788 21.2867 92.1208 20.6166 92.4048 20.0308C92.6888 19.445 93.106 18.9524 93.6563 18.553C94.2154 18.1447 94.9122 17.8385 95.7465 17.6344C96.5808 17.4214 97.5482 17.3149 98.6488 17.3149H100.872Z" fill="#F9F8F3"/>
<path d="M107.183 5.63896H111.017V22.7867L110.631 26.0884H107.183V5.63896ZM120.137 18.7394V19.019C120.137 20.0929 120.021 21.0781 119.791 21.9746C119.569 22.871 119.223 23.6476 118.752 24.3044C118.282 24.9523 117.696 25.4582 116.995 25.8221C116.302 26.1772 115.486 26.3547 114.545 26.3547C113.666 26.3547 112.903 26.1772 112.255 25.8221C111.616 25.4671 111.079 24.9656 110.644 24.3177C110.209 23.6698 109.859 22.9109 109.592 22.0411C109.326 21.1713 109.126 20.2216 108.993 19.192V18.5796C109.126 17.5501 109.326 16.6004 109.592 15.7306C109.859 14.8607 110.209 14.1019 110.644 13.454C111.079 12.806 111.616 12.3046 112.255 11.9495C112.894 11.5945 113.649 11.417 114.518 11.417C115.468 11.417 116.294 11.5989 116.995 11.9628C117.705 12.3179 118.291 12.8238 118.752 13.4806C119.223 14.1285 119.569 14.9007 119.791 15.7971C120.021 16.6847 120.137 17.6654 120.137 18.7394ZM116.302 19.019V18.7394C116.302 18.1536 116.258 17.6033 116.169 17.0885C116.089 16.5649 115.947 16.1078 115.743 15.7172C115.539 15.3178 115.26 15.0028 114.905 14.772C114.558 14.5412 114.11 14.4258 113.56 14.4258C113.036 14.4258 112.592 14.5146 112.229 14.6921C111.865 14.8696 111.563 15.1181 111.323 15.4377C111.092 15.7572 110.919 16.1388 110.804 16.5826C110.689 17.0175 110.618 17.4968 110.591 18.0205V19.7645C110.618 20.4657 110.733 21.087 110.937 21.6284C111.15 22.1609 111.47 22.5825 111.896 22.8932C112.331 23.195 112.894 23.3458 113.586 23.3458C114.128 23.3458 114.576 23.2393 114.931 23.0263C115.286 22.8133 115.561 22.5115 115.757 22.121C115.961 21.7305 116.103 21.2734 116.183 20.7497C116.262 20.2172 116.302 19.6403 116.302 19.019Z" fill="#F9F8F3"/>
<path d="M130.295 22.8399V16.4229C130.295 15.9613 130.219 15.5664 130.069 15.238C129.918 14.9007 129.682 14.6389 129.363 14.4525C129.052 14.2661 128.648 14.1729 128.151 14.1729C127.725 14.1729 127.357 14.2483 127.046 14.3992C126.736 14.5412 126.496 14.7498 126.327 15.0249C126.159 15.2912 126.075 15.6063 126.075 15.9702H122.24C122.24 15.3578 122.382 14.7764 122.666 14.2261C122.95 13.6758 123.363 13.1921 123.904 12.775C124.446 12.3489 125.089 12.0161 125.835 11.7765C126.589 11.5368 127.432 11.417 128.364 11.417C129.483 11.417 130.477 11.6034 131.347 11.9762C132.216 12.3489 132.9 12.9081 133.397 13.6537C133.903 14.3992 134.156 15.3311 134.156 16.4495V22.6136C134.156 23.4035 134.205 24.0515 134.302 24.5574C134.4 25.0544 134.542 25.4893 134.728 25.8621V26.0884H130.854C130.668 25.6979 130.526 25.2097 130.428 24.6239C130.339 24.0293 130.295 23.4346 130.295 22.8399ZM130.801 17.3149L130.827 19.4849H128.684C128.178 19.4849 127.739 19.5426 127.366 19.658C126.993 19.7734 126.687 19.9376 126.447 20.1506C126.208 20.3548 126.03 20.5944 125.915 20.8695C125.808 21.1447 125.755 21.4465 125.755 21.7749C125.755 22.1033 125.83 22.4006 125.981 22.6669C126.132 22.9243 126.35 23.1284 126.634 23.2793C126.918 23.4213 127.251 23.4923 127.632 23.4923C128.209 23.4923 128.711 23.3769 129.137 23.1461C129.563 22.9154 129.891 22.6314 130.122 22.2941C130.361 21.9568 130.486 21.6373 130.495 21.3355L131.506 22.9598C131.364 23.3237 131.169 23.7009 130.921 24.0914C130.681 24.4819 130.375 24.8503 130.002 25.1964C129.629 25.5337 129.181 25.8133 128.657 26.0352C128.134 26.2482 127.512 26.3547 126.793 26.3547C125.879 26.3547 125.049 26.1727 124.304 25.8088C123.567 25.4361 122.981 24.9257 122.546 24.2778C122.12 23.621 121.907 22.8754 121.907 22.0411C121.907 21.2867 122.049 20.6166 122.333 20.0308C122.617 19.445 123.035 18.9524 123.585 18.553C124.144 18.1447 124.841 17.8385 125.675 17.6344C126.509 17.4214 127.477 17.3149 128.577 17.3149H130.801Z" fill="#F9F8F3"/>
</svg>
