<svg width="118" height="36" viewBox="0 0 118 36" fill="none" xmlns="http://www.w3.org/2000/svg">
<path d="M47.9109 25.0515L49.1885 22.0058C50.5692 23.0634 52.4031 23.6133 54.2165 23.6133C55.5559 23.6133 56.4008 23.0845 56.4008 22.2808C56.3802 20.0388 48.3849 21.7943 48.3231 16.1682C48.3025 13.3128 50.7752 11.1131 54.2783 11.1131C56.3596 11.1131 58.4408 11.6419 59.9245 12.8475L58.7293 15.9566C57.3693 15.0683 55.6796 14.4338 54.0723 14.4338C52.9801 14.4338 52.2589 14.9626 52.2589 15.6394C52.2795 17.8391 60.3366 16.6335 60.4191 22.0058C60.4191 24.9246 58.0081 26.9763 54.5462 26.9763C52.0116 26.9763 49.6831 26.3629 47.9109 25.0515ZM96.9337 20.906C96.2949 22.0481 95.0998 22.8307 93.7191 22.8307C91.6791 22.8307 90.0306 21.1386 90.0306 19.0447C90.0306 16.9507 91.6791 15.2587 93.7191 15.2587C95.0998 15.2587 96.2949 16.0413 96.9337 17.1834L100.457 15.1741C99.1386 12.7629 96.604 11.1131 93.7191 11.1131C89.4536 11.1131 85.9917 14.6664 85.9917 19.0447C85.9917 23.4229 89.4536 26.9763 93.7191 26.9763C96.6246 26.9763 99.1386 25.3477 100.457 22.9153L96.9337 20.906ZM62.1912 4.53516H66.601V26.6802H62.1912V4.53516ZM102.188 4.53516V26.6802H106.598V20.0388L111.832 26.6802H117.478L110.823 18.7909L116.984 11.4304H111.585L106.598 17.543V4.53516H102.188ZM79.7067 20.9483C79.0679 22.027 77.7491 22.8307 76.2654 22.8307C74.2254 22.8307 72.5769 21.1386 72.5769 19.0447C72.5769 16.9507 74.2254 15.2587 76.2654 15.2587C77.7491 15.2587 79.0679 16.1047 79.7067 17.2046V20.9483ZM79.7067 11.4304V13.2282C78.9855 11.9803 77.1927 11.1131 75.3175 11.1131C71.4435 11.1131 68.3938 14.6241 68.3938 19.0235C68.3938 23.4229 71.4435 26.9763 75.3175 26.9763C77.1927 26.9763 78.9855 26.1091 79.7067 24.8612V26.659H84.1165V11.4304H79.7067Z" fill="#F9F8F3"/>
<path d="M8.09505 22.7453C8.09505 24.8322 6.40837 26.5188 4.32147 26.5188C2.23457 26.5188 0.547901 24.8322 0.547901 22.7453C0.547901 20.6584 2.23457 18.9717 4.32147 18.9717H8.09505V22.7453ZM9.98183 22.7453C9.98183 20.6584 11.6685 18.9717 13.7554 18.9717C15.8423 18.9717 17.529 20.6584 17.529 22.7453V32.1792C17.529 34.2661 15.8423 35.9528 13.7554 35.9528C11.6685 35.9528 9.98183 34.2661 9.98183 32.1792V22.7453Z" fill="#F9F8F3"/>
<path d="M13.7577 7.59402C11.6708 7.59402 9.98412 5.90735 9.98412 3.82045C9.98412 1.73355 11.6708 0.046875 13.7577 0.046875C15.8446 0.046875 17.5313 1.73355 17.5313 3.82045V7.59402H13.7577ZM13.7577 9.50939C15.8446 9.50939 17.5313 11.1961 17.5313 13.283C17.5313 15.3699 15.8446 17.0565 13.7577 17.0565H4.29517C2.20827 17.0565 0.521603 15.3699 0.521603 13.283C0.521603 11.1961 2.20827 9.50939 4.29517 9.50939H13.7577Z" fill="#F9F8F3"/>
<path d="M28.8815 13.283C28.8815 11.1961 30.5681 9.50939 32.655 9.50939C34.7419 9.50939 36.4286 11.1961 36.4286 13.283C36.4286 15.3699 34.7419 17.0565 32.655 17.0565H28.8815V13.283ZM26.9947 13.283C26.9947 15.3699 25.308 17.0565 23.2211 17.0565C21.1342 17.0565 19.4475 15.3699 19.4475 13.283V3.82045C19.4475 1.73355 21.1342 0.046875 23.2211 0.046875C25.308 0.046875 26.9947 1.73355 26.9947 3.82045V13.283Z" fill="#F9F8F3"/>
<path d="M23.2211 28.4056C25.308 28.4056 26.9947 30.0923 26.9947 32.1792C26.9947 34.2661 25.308 35.9528 23.2211 35.9528C21.1342 35.9528 19.4475 34.2661 19.4475 32.1792V28.4056H23.2211ZM23.2211 26.5188C21.1342 26.5188 19.4475 24.8322 19.4475 22.7453C19.4475 20.6584 21.1342 18.9717 23.2211 18.9717H32.6836C34.7705 18.9717 36.4572 20.6584 36.4572 22.7453C36.4572 24.8322 34.7705 26.5188 32.6836 26.5188H23.2211Z" fill="#F9F8F3"/>
</svg>
