<svg width="218" height="36" viewBox="0 0 218 36" fill="none" xmlns="http://www.w3.org/2000/svg">
<path fill-rule="evenodd" clip-rule="evenodd" d="M18.2196 35.5614C27.9184 35.5614 35.7806 27.6991 35.7806 18.0004C35.7806 8.30177 27.9184 0.439453 18.2196 0.439453C8.521 0.439453 0.658691 8.30177 0.658691 18.0004C0.658691 27.6991 8.521 35.5614 18.2196 35.5614ZM20.9302 14.0076C22.4271 12.5106 22.4271 10.0836 20.9302 8.58658C19.4332 7.08961 17.0062 7.08961 15.5092 8.58658C14.0123 10.0836 14.0123 12.5106 15.5092 14.0076L18.2196 16.718L20.9302 14.0076ZM22.2126 20.7109C23.7096 22.2079 26.1366 22.2079 27.6336 20.7109C29.1305 19.214 29.1305 16.7869 27.6336 15.29C26.1366 13.7931 23.7096 13.7931 22.2126 15.29L19.5021 18.0005L22.2126 20.7109ZM20.9302 27.4143C22.4271 25.9173 22.4271 23.4903 20.9302 21.9933L18.2196 19.2829L15.5092 21.9933C14.0123 23.4903 14.0123 25.9173 15.5092 27.4143C17.0062 28.9113 19.4332 28.9113 20.9302 27.4143ZM8.80579 20.7109C7.30885 19.214 7.30885 16.7869 8.80579 15.29C10.3028 13.7931 12.7298 13.7931 14.2268 15.29L16.9373 18.0005L14.2268 20.7109C12.7298 22.2079 10.3028 22.2079 8.80579 20.7109Z" fill="#F9F8F3"/>
<path d="M51.3951 28.9759V9.99147H58.7008C60.4757 9.99147 61.8477 10.1715 62.8166 10.5317C63.7942 10.8918 64.4716 11.4406 64.8488 12.178C65.2347 12.9069 65.4276 13.8415 65.4276 14.9819C65.4276 15.9509 65.269 16.7398 64.9517 17.3486C64.6345 17.9574 63.9828 18.3861 62.9967 18.6348C63.8713 18.7548 64.5402 19.0206 65.0032 19.4322C65.4748 19.8352 65.7963 20.3583 65.9678 21.0014C66.1479 21.6445 66.2379 22.3819 66.2379 23.2137C66.2379 25.203 65.7235 26.6607 64.6945 27.5868C63.6741 28.5128 61.9849 28.9759 59.6269 28.9759H51.3951ZM55.2152 17.6315H59.1638C59.9098 17.6315 60.4457 17.5329 60.7716 17.3357C61.106 17.1385 61.3161 16.8469 61.4018 16.4611C61.4876 16.0666 61.5304 15.5865 61.5304 15.0205C61.5304 14.3517 61.4533 13.8458 61.2989 13.5028C61.1446 13.1512 60.8487 12.9154 60.4114 12.7954C59.9741 12.6668 59.3224 12.6025 58.4564 12.6025H55.2152V17.6315ZM55.2152 26.3005H58.9194C59.9141 26.3005 60.6601 26.2191 61.1574 26.0562C61.6633 25.8932 62.002 25.5846 62.1735 25.1301C62.345 24.6671 62.4308 23.9982 62.4308 23.1236C62.4308 22.4891 62.3665 21.936 62.2378 21.4644C62.1178 20.9842 61.8348 20.6112 61.389 20.3454C60.9516 20.071 60.2571 19.9338 59.3053 19.9338H55.2152V26.3005Z" fill="#F9F8F3"/>
<path d="M70.1223 28.9759V9.99147H78.3154C79.996 9.99147 81.2951 10.2273 82.2126 10.6989C83.1301 11.1705 83.7646 11.8307 84.1162 12.6796C84.4763 13.5285 84.6564 14.5232 84.6564 15.6636C84.6564 16.4439 84.5835 17.1771 84.4377 17.863C84.3005 18.5404 84.0304 19.1407 83.6274 19.6637C83.2244 20.1868 82.637 20.6069 81.8653 20.9242L85.531 28.9759H81.5695L78.2382 21.4773H73.9423V28.9759H70.1223ZM73.9423 18.7505H78.637C79.2886 18.7505 79.7817 18.6219 80.1161 18.3647C80.4591 18.0988 80.6906 17.7473 80.8106 17.31C80.9393 16.8641 81.0036 16.371 81.0036 15.8308C81.0036 15.3164 80.9478 14.819 80.8364 14.3388C80.7335 13.8587 80.5234 13.4685 80.2061 13.1684C79.8974 12.8597 79.4258 12.7054 78.7913 12.7054H73.9423V18.7505Z" fill="#F9F8F3"/>
<path d="M93.2611 21.6831L86.7143 9.99147H90.7401L95.1904 18.146L99.6278 9.99147H103.486L97.0683 21.6831V28.9759H93.2611V21.6831Z" fill="#F9F8F3"/>
<path d="M113.519 29.3103C111.83 29.3103 110.458 29.1473 109.403 28.8215C108.357 28.4871 107.555 28.0241 106.998 27.4324C106.44 26.8408 106.059 26.1462 105.853 25.3488C105.647 24.5513 105.544 23.6853 105.544 22.7506V16.4096C105.544 15.4493 105.643 14.5618 105.84 13.7472C106.046 12.924 106.423 12.208 106.972 11.5992C107.529 10.9904 108.335 10.5188 109.39 10.1844C110.445 9.84142 111.821 9.66992 113.519 9.66992C115.139 9.66992 116.443 9.83713 117.429 10.1715C118.424 10.4974 119.178 10.9604 119.693 11.5606C120.207 12.1609 120.554 12.8683 120.734 13.6829C120.914 14.4889 121.005 15.3721 121.005 16.3325V16.564L117.262 17.0013V16.0366C117.262 15.1449 117.15 14.4589 116.927 13.9787C116.704 13.4899 116.323 13.1512 115.783 12.9626C115.242 12.7654 114.488 12.6668 113.519 12.6668C112.104 12.6668 111.058 12.8897 110.38 13.3356C109.703 13.7815 109.364 14.6561 109.364 15.9595V23.1365C109.364 24.0025 109.514 24.6671 109.815 25.1301C110.115 25.5846 110.569 25.8975 111.178 26.069C111.795 26.2319 112.58 26.3134 113.532 26.3134C114.501 26.3134 115.255 26.2319 115.795 26.069C116.336 25.8975 116.713 25.5803 116.927 25.1172C117.15 24.6456 117.262 23.9597 117.262 23.0593V22.4548H121.005V22.8021C121.005 23.7367 120.919 24.5985 120.747 25.3873C120.576 26.1762 120.237 26.8665 119.731 27.4581C119.225 28.0412 118.475 28.4957 117.48 28.8215C116.486 29.1473 115.165 29.3103 113.519 29.3103Z" fill="#F9F8F3"/>
<path d="M125.095 28.9759V9.99147H133.288C134.968 9.99147 136.267 10.2273 137.185 10.6989C138.102 11.1705 138.737 11.8307 139.089 12.6796C139.449 13.5285 139.629 14.5232 139.629 15.6636C139.629 16.4439 139.556 17.1771 139.41 17.863C139.273 18.5404 139.003 19.1407 138.6 19.6637C138.197 20.1868 137.609 20.6069 136.838 20.9242L140.503 28.9759H136.542L133.211 21.4773H128.915V28.9759H125.095ZM128.915 18.7505H133.609C134.261 18.7505 134.754 18.6219 135.088 18.3647C135.431 18.0988 135.663 17.7473 135.783 17.31C135.912 16.8641 135.976 16.371 135.976 15.8308C135.976 15.3164 135.92 14.819 135.809 14.3388C135.706 13.8587 135.496 13.4685 135.178 13.1684C134.87 12.8597 134.398 12.7054 133.764 12.7054H128.915V18.7505Z" fill="#F9F8F3"/>
<path d="M148.233 21.6831L141.687 9.99147H145.713L150.163 18.146L154.6 9.99147H158.459L152.041 21.6831V28.9759H148.233V21.6831Z" fill="#F9F8F3"/>
<path d="M160.967 25.323H164.8V28.9759H160.967V25.323Z" fill="#F9F8F3"/>
<path d="M173.597 28.9759V12.8983H168.311V9.99147H182.691V12.8983H177.405V28.9759H173.597Z" fill="#F9F8F3"/>
<path d="M185.623 9.99147H198.061V12.8726H189.431V17.9145H197.084V20.667H189.431V26.0948H198.203V28.9759H185.623V9.99147Z" fill="#F9F8F3"/>
<path d="M209.856 29.3103C208.166 29.3103 206.794 29.1473 205.74 28.8215C204.694 28.4871 203.892 28.0241 203.334 27.4324C202.777 26.8408 202.396 26.1462 202.19 25.3488C201.984 24.5513 201.881 23.6853 201.881 22.7506V16.4096C201.881 15.4493 201.98 14.5618 202.177 13.7472C202.383 12.924 202.76 12.208 203.309 11.5992C203.866 10.9904 204.672 10.5188 205.727 10.1844C206.781 9.84142 208.158 9.66992 209.856 9.66992C211.476 9.66992 212.779 9.83713 213.766 10.1715C214.76 10.4974 215.515 10.9604 216.029 11.5606C216.544 12.1609 216.891 12.8683 217.071 13.6829C217.251 14.4889 217.341 15.3721 217.341 16.3325V16.564L213.598 17.0013V16.0366C213.598 15.1449 213.487 14.4589 213.264 13.9787C213.041 13.4899 212.659 13.1512 212.119 12.9626C211.579 12.7654 210.824 12.6668 209.856 12.6668C208.441 12.6668 207.395 12.8897 206.717 13.3356C206.04 13.7815 205.701 14.6561 205.701 15.9595V23.1365C205.701 24.0025 205.851 24.6671 206.151 25.1301C206.451 25.5846 206.906 25.8975 207.515 26.069C208.132 26.2319 208.917 26.3134 209.868 26.3134C210.837 26.3134 211.592 26.2319 212.132 26.069C212.672 25.8975 213.05 25.5803 213.264 25.1172C213.487 24.6456 213.598 23.9597 213.598 23.0593V22.4548H217.341V22.8021C217.341 23.7367 217.255 24.5985 217.084 25.3873C216.913 26.1762 216.574 26.8665 216.068 27.4581C215.562 28.0412 214.812 28.4957 213.817 28.8215C212.822 29.1473 211.502 29.3103 209.856 29.3103Z" fill="#F9F8F3"/>
</svg>
