<svg width="89" height="88" viewBox="0 0 89 88" fill="none" xmlns="http://www.w3.org/2000/svg">
<path d="M56.9925 21.5H32.8258L30.4092 26M56.9925 21.5L59.4092 26L49.7425 44M56.9925 21.5L47.3258 39.5M49.7425 44L47.3258 39.5M49.7425 44L59.4092 62M30.4092 26H49.7425L47.3258 30.5M30.4092 26L40.0758 44M47.3258 30.5L44.9092 35M47.3258 30.5H42.4925M44.9092 35L42.4925 30.5M44.9092 35L47.3258 39.5M42.4925 30.5H37.6592L52.1592 57.5H47.3258M40.0758 44L42.4925 48.5M40.0758 44L30.4092 62L32.8258 66.5M42.4925 48.5L44.9092 53M42.4925 48.5L32.8258 66.5M44.9092 53L47.3258 57.5M44.9092 53L42.4925 57.5M47.3258 57.5H42.4925M59.4092 62L56.9925 66.5H32.8258M59.4092 62H40.0758L42.4925 57.5" stroke="#ABB0B4" stroke-width="2" stroke-linecap="round" stroke-linejoin="round"/>
</svg>
