<svg width="89" height="88" viewBox="0 0 89 88" fill="none" xmlns="http://www.w3.org/2000/svg">
<path d="M56.8109 21.5H32.6442L30.2275 26M56.8109 21.5L59.2275 26L49.5609 44M56.8109 21.5L47.1442 39.5M49.5609 44L47.1442 39.5M49.5609 44L59.2275 62M30.2275 26H49.5609L47.1442 30.5M30.2275 26L39.8942 44M47.1442 30.5L44.7275 35M47.1442 30.5H42.3109M44.7275 35L42.3109 30.5M44.7275 35L47.1442 39.5M42.3109 30.5H37.4775L51.9775 57.5H47.1442M39.8942 44L42.3109 48.5M39.8942 44L30.2275 62L32.6442 66.5M42.3109 48.5L44.7275 53M42.3109 48.5L32.6442 66.5M44.7275 53L47.1442 57.5M44.7275 53L42.3109 57.5M47.1442 57.5H42.3109M59.2275 62L56.8109 66.5H32.6442M59.2275 62H39.8942L42.3109 57.5" stroke="#ABB0B4" stroke-width="2" stroke-linecap="round" stroke-linejoin="round"/>
</svg>
