<svg width="89" height="88" viewBox="0 0 89 88" fill="none" xmlns="http://www.w3.org/2000/svg">
<path d="M52.8131 20H36.3131L34.6631 24.9M52.8131 20L54.4631 24.9L47.8631 44.5M52.8131 20L46.2131 39.6M47.8631 44.5L46.2131 39.6M47.8631 44.5L54.4631 64.1M34.6631 24.9H47.8631L46.2131 29.8M34.6631 24.9L41.2631 44.5M46.2131 29.8L44.5631 34.7M46.2131 29.8H42.9131M44.5631 34.7L42.9131 29.8M44.5631 34.7L46.2131 39.6M42.9131 29.8H39.6131L49.5131 59.2H46.2131M41.2631 44.5L42.9131 49.4M41.2631 44.5L34.6631 64.1L36.3131 69M42.9131 49.4L44.5631 54.3M42.9131 49.4L36.3131 69M44.5631 54.3L46.2131 59.2M44.5631 54.3L42.9131 59.2M46.2131 59.2H42.9131M54.4631 64.1L52.8131 69H36.3131M54.4631 64.1H41.2631L42.9131 59.2" stroke="#ABB0B4" stroke-width="2" stroke-linecap="round" stroke-linejoin="round"/>
</svg>
