<svg width="40" height="40" viewBox="0 0 40 40" fill="none" xmlns="http://www.w3.org/2000/svg">
<rect width="40" height="40" rx="20" fill="#E4E4E4"/>
<path d="M20.2687 22.1852C20.2687 20.816 19.6175 19.804 18.2721 19.4247C19.2538 18.9572 19.7657 18.2489 19.7657 17.1473C19.7657 14.975 18.1417 14.4453 16.268 14.4453H11.1094V25.3517H16.4125C18.401 25.3517 20.2687 24.4011 20.2687 22.1852ZM13.5142 16.3071H15.7709C16.6385 16.3071 17.4194 16.5501 17.4194 17.5533C17.4194 18.4793 16.8118 18.852 15.9524 18.852H13.5142V16.3071ZM13.5135 23.4995V20.496H16.1347C17.1934 20.496 17.8631 20.9361 17.8631 22.0533C17.8631 23.155 17.0637 23.4995 16.0851 23.4995H13.5135Z" fill="#121518"/>
<path d="M25.0384 25.5564C26.9306 25.5564 28.156 24.7066 28.7457 22.9003H26.8254C26.6187 23.5745 25.7667 23.9309 25.1058 23.9309C23.8308 23.9309 23.161 23.1863 23.161 21.9209H28.8754C29.0561 19.3886 27.6455 17.2305 25.0377 17.2305C22.6232 17.2305 20.9844 19.0397 20.9844 21.4097C20.9844 23.8694 22.5372 25.5564 25.0384 25.5564ZM24.9703 18.8693C26.063 18.8693 26.6128 19.5094 26.7046 20.5562H23.164C23.2359 19.5183 23.9271 18.8693 24.9703 18.8693Z" fill="#121518"/>
<path d="M22.7148 15.0195H27.1512V16.0938H22.7148V15.0195Z" fill="#121518"/>
</svg>
