<svg width="32" height="32" viewBox="0 0 32 32" fill="none" xmlns="http://www.w3.org/2000/svg">
<path d="M30.7692 9.46154H1.23077C0.557949 9.46154 0 8.90359 0 8.23077C0 7.55795 0.557949 7 1.23077 7H30.7692C31.4421 7 32 7.55795 32 8.23077C32 8.90359 31.4421 9.46154 30.7692 9.46154Z" fill="#5A5C5E"/>
<path d="M30.7692 17.6666H1.23077C0.557949 17.6666 0 17.1087 0 16.4358C0 15.763 0.557949 15.2051 1.23077 15.2051H30.7692C31.4421 15.2051 32 15.763 32 16.4358C32 17.1087 31.4421 17.6666 30.7692 17.6666Z" fill="#5A5C5E"/>
<path d="M30.7692 25.8717H1.23077C0.557949 25.8717 0 25.3137 0 24.6409C0 23.9681 0.557949 23.4102 1.23077 23.4102H30.7692C31.4421 23.4102 32 23.9681 32 24.6409C32 25.3137 31.4421 25.8717 30.7692 25.8717Z" fill="#5A5C5E"/>
</svg>
