<svg width="64" height="64" viewBox="0 0 64 64" fill="none" xmlns="http://www.w3.org/2000/svg">
<path d="M56.0013 27.9992C54.8821 27.9969 53.7906 28.3467 52.8813 28.9992L46.668 33.4125V31.9992C46.668 30.231 45.9656 28.5354 44.7153 27.2851C43.4651 26.0349 41.7694 25.3325 40.0013 25.3325H39.6946C41.3272 23.9031 42.4849 22.0098 43.0134 19.9052C43.5419 17.8007 43.416 15.585 42.6525 13.5539C41.8889 11.5228 40.5241 9.77287 38.7401 8.53763C36.9561 7.3024 34.8379 6.64063 32.668 6.64062C30.4981 6.64063 28.3798 7.3024 26.5958 8.53763C24.8118 9.77287 23.447 11.5228 22.6835 13.5539C21.9199 15.585 21.794 17.8007 22.3225 19.9052C22.851 22.0098 24.0088 23.9031 25.6413 25.3325H19.2813C20.324 24.1715 21.0043 22.7308 21.2385 21.188C21.4727 19.6452 21.2507 18.0676 20.5996 16.6494C19.9485 15.2313 18.8969 14.0345 17.5742 13.2064C16.2516 12.3784 14.7156 11.9552 13.1555 11.9891C11.5954 12.023 10.0792 12.5124 8.79374 13.3971C7.50826 14.2818 6.50958 15.5231 5.92068 16.9682C5.33179 18.4133 5.17838 19.999 5.47937 21.5302C5.78035 23.0614 6.52257 24.4711 7.61464 25.5858C6.20038 25.9635 4.94974 26.7961 4.05573 27.9552C3.16171 29.1143 2.67404 30.5354 2.66797 31.9992V50.6658C2.66797 52.4339 3.37035 54.1296 4.62059 55.3799C5.87083 56.6301 7.56653 57.3325 9.33464 57.3325H40.0013C41.7694 57.3325 43.4651 56.6301 44.7153 55.3799C45.9656 54.1296 46.668 52.4339 46.668 50.6658V49.2525L52.8413 53.6658C53.6383 54.2521 54.5827 54.605 55.5688 54.6853C56.5549 54.7655 57.544 54.5699 58.4253 54.1203C59.3066 53.6706 60.0455 52.9847 60.5592 52.1392C61.073 51.2936 61.3415 50.3219 61.3346 49.3325V33.3325C61.3346 31.918 60.7727 30.5614 59.7725 29.5612C58.7723 28.5611 57.4158 27.9992 56.0013 27.9992ZM24.668 17.3325C24.668 15.7502 25.1372 14.2035 26.0162 12.8879C26.8953 11.5723 28.1447 10.547 29.6065 9.94145C31.0683 9.33595 32.6768 9.17752 34.2287 9.4862C35.7805 9.79488 37.206 10.5568 38.3248 11.6756C39.4436 12.7945 40.2056 14.2199 40.5143 15.7718C40.8229 17.3236 40.6645 18.9321 40.059 20.394C39.4535 21.8558 38.4281 23.1052 37.1125 23.9842C35.7969 24.8633 34.2502 25.3325 32.668 25.3325C30.5462 25.3325 28.5114 24.4896 27.0111 22.9893C25.5108 21.489 24.668 19.4542 24.668 17.3325ZM13.3346 14.6658C14.3895 14.6658 15.4206 14.9786 16.2977 15.5646C17.1747 16.1507 17.8583 16.9836 18.262 17.9582C18.6657 18.9327 18.7713 20.0051 18.5655 21.0396C18.3597 22.0742 17.8518 23.0245 17.1059 23.7704C16.36 24.5163 15.4097 25.0242 14.3751 25.23C13.3406 25.4358 12.2682 25.3302 11.2937 24.9265C10.3191 24.5228 9.48617 23.8393 8.90013 22.9622C8.3141 22.0851 8.0013 21.054 8.0013 19.9992C8.0013 18.5847 8.56321 17.2281 9.5634 16.2279C10.5636 15.2277 11.9201 14.6658 13.3346 14.6658ZM44.0013 50.6658C44.0013 51.7267 43.5799 52.7441 42.8297 53.4942C42.0796 54.2444 41.0622 54.6658 40.0013 54.6658H9.33464C8.27377 54.6658 7.25635 54.2444 6.50621 53.4942C5.75606 52.7441 5.33464 51.7267 5.33464 50.6658V31.9992C5.33464 30.9383 5.75606 29.9209 6.50621 29.1707C7.25635 28.4206 8.27377 27.9992 9.33464 27.9992H40.0013C41.0622 27.9992 42.0796 28.4206 42.8297 29.1707C43.5799 29.9209 44.0013 30.9383 44.0013 31.9992V50.6658ZM58.668 49.3325C58.6826 49.8356 58.5546 50.3327 58.2986 50.7661C58.0426 51.1995 57.6692 51.5516 57.2215 51.7818C56.7738 52.0119 56.2702 52.1106 55.7687 52.0665C55.2673 52.0224 54.7886 51.8372 54.388 51.5325L46.668 45.9858V36.6525L54.388 31.1458C54.7877 30.8419 55.2651 30.6569 55.7653 30.6124C56.2655 30.5678 56.7681 30.6653 57.2153 30.8938C57.6625 31.1223 58.0361 31.4724 58.2931 31.9038C58.5501 32.3352 58.68 32.8305 58.668 33.3325V49.3325Z" fill="#121518"/>
</svg>
