<svg width="64" height="64" viewBox="0 0 64 64" fill="none" xmlns="http://www.w3.org/2000/svg">
<path d="M60.9999 25.9997C61.0082 22.3159 60.1315 18.684 58.4436 15.4097C56.7556 12.1354 54.3059 9.31434 51.3006 7.18406C48.2952 5.05377 44.8221 3.67653 41.1735 3.16824C37.525 2.65995 33.8077 3.03548 30.3345 4.26322C26.8613 5.49097 23.7338 7.53501 21.2153 10.2233C18.6967 12.9117 16.8607 16.1656 15.8617 19.7114C14.8628 23.2572 14.7302 26.991 15.4751 30.5987C16.2199 34.2065 17.8204 37.5825 20.1419 40.4427L15.9999 44.5857L13.9999 42.5857L2.58594 53.9997L9.99994 61.4137L21.4139 49.9997L19.4139 47.9997L23.5589 43.8547C24.9169 44.9589 26.3961 45.905 27.9679 46.6747L27.1249 52.9997H24.9999V60.9997H50.9999V52.9997H48.8749L48.0319 46.6747C51.9146 44.7911 55.1893 41.8537 57.4824 38.1979C59.7754 34.5421 60.9943 30.3151 60.9999 25.9997ZM9.99994 58.5857L5.41394 53.9997L13.9999 45.4137L18.5859 49.9997L9.99994 58.5857ZM17.9999 46.5857L17.4139 45.9997L21.4659 41.9477C21.6579 42.1477 21.8589 42.3357 22.0589 42.5267L17.9999 46.5857ZM48.9999 54.9997V58.9997H26.9999V54.9997H48.9999ZM36.9999 16.9997V12.9997H38.9999V16.9997H44.9999V12.9997H46.9999V18.9997H28.9999V12.9997H30.9999V16.9997H36.9999ZM30.9999 20.9997H44.9999V22.9997H30.9999V20.9997ZM32.8749 24.9997H43.1249L46.8579 52.9997H29.1419L32.8749 24.9997ZM47.7499 44.5587L45.1419 24.9997H46.9999V20.9997H48.9999V10.9997H42.9999V14.9997H40.9999V10.9997H34.9999V14.9997H32.9999V10.9997H26.9999V20.9997H28.9999V24.9997H30.8579L28.2499 44.5587C24.0906 42.3784 20.7822 38.8668 18.8532 34.5851C16.9243 30.3034 16.4862 25.4987 17.6089 20.9387C18.7317 16.3788 21.3504 12.3267 25.0468 9.43007C28.7432 6.53341 33.3038 4.95933 37.9999 4.95933C42.6961 4.95933 47.2567 6.53341 50.9531 9.43007C54.6494 12.3267 57.2682 16.3788 58.391 20.9387C59.5137 25.4987 59.0756 30.3034 57.1466 34.5851C55.2177 38.8668 51.9092 42.3784 47.7499 44.5587Z" fill="#121518"/>
</svg>
