<svg width="64" height="64" viewBox="0 0 64 64" fill="none" xmlns="http://www.w3.org/2000/svg">
<g clip-path="url(#clip0_7736_2376)">
<path d="M62.911 50.23L61.998 42.926L61 0.977L60.975 0.978C60.97 0.766 60.922 0.556 60.788 0.386C60.6948 0.265763 60.5754 0.168458 60.4388 0.101548C60.3022 0.0346379 60.1521 -9.94138e-05 60 2.13696e-07H20C19.7769 6.18366e-05 19.5603 0.0747016 19.3845 0.21205C19.2088 0.349398 19.084 0.541568 19.03 0.758L17.03 8.758C16.9932 8.90528 16.9904 9.05903 17.0219 9.20754C17.0535 9.35605 17.1185 9.4954 17.212 9.615C17.2989 9.72307 17.4076 9.81167 17.5309 9.87506C17.6543 9.93846 17.7895 9.97523 17.928 9.983L16.648 28H4.52C3.612 28 2.812 28.607 2.577 29.473L0.079 38.465C-0.092 39.065 0.026 39.695 0.404 40.196C0.789 40.707 1.378 41 2.02 41H2.087L2.908 50H2C0.897 50 0 50.897 0 52V62C0 63.103 0.897 64 2 64H62C63.103 64 64 63.103 64 62V52C64 51.227 63.555 50.563 62.911 50.23ZM59.177 8.417L60 43.023C60 43.057 60.003 43.09 60.007 43.124L60.867 50H55.132L55.998 43.059L57.943 10H58C58.2231 9.99994 58.4397 9.9253 58.6155 9.78795C58.7912 9.6506 58.916 9.45843 58.97 9.242L59.177 8.417ZM57.219 8H43V2H58.719L57.219 8ZM35 2H41V10.382L40.447 10.106C40.3081 10.0365 40.1549 10.0003 39.9995 10.0003C39.8441 10.0003 39.6909 10.0365 39.552 10.106L38 10.882L36.447 10.106C36.3081 10.0365 36.1549 10.0003 35.9995 10.0003C35.8441 10.0003 35.6909 10.0365 35.552 10.106L35 10.382V2ZM19.932 10H31C31.2652 10 31.5196 9.89464 31.7071 9.70711C31.8946 9.51957 32 9.26522 32 9C32 8.73478 31.8946 8.48043 31.7071 8.29289C31.5196 8.10536 31.2652 8 31 8H19.281L20.781 2H33V12C32.9999 12.1705 33.0434 12.3381 33.1264 12.4871C33.2093 12.636 33.329 12.7613 33.474 12.8509C33.619 12.9406 33.7845 12.9917 33.9548 12.9994C34.1251 13.0072 34.2945 12.9712 34.447 12.895L36 12.118L37.553 12.894C37.6919 12.9635 37.8451 12.9997 38.0005 12.9997C38.1559 12.9997 38.3091 12.9635 38.448 12.894L40 12.118L41.553 12.894C41.7052 12.9711 41.8747 13.0077 42.0451 13.0001C42.2156 12.9926 42.3812 12.9412 42.526 12.851C42.82 12.668 43 12.347 43 12V10H55.94L54.008 42.876L53.117 50H31.093L31.914 41H31.981C32.2946 41.0014 32.6041 40.9294 32.8849 40.7898C33.1656 40.6502 33.4099 40.4469 33.598 40.196C33.7829 39.9539 33.9087 39.672 33.9654 39.3727C34.0222 39.0734 34.0084 38.765 33.925 38.472L31.426 29.477C31.3077 29.0519 31.0534 28.6773 30.7019 28.4106C30.3504 28.1438 29.9212 27.9996 29.48 28H18.654L19.932 10ZM4.52 30L29.497 30.008L31.98 39H3L2.003 39.008L4.52 30ZM14 41H20V43H14V41ZM12 41V43C12 44.103 12.897 45 14 45H20C21.103 45 22 44.103 22 43V41H29.895L29 50L4.916 49.999L4.096 41H12ZM62 62H2V52H37V56H27V54C27 53.7348 26.8946 53.4804 26.7071 53.2929C26.5196 53.1054 26.2652 53 26 53C25.7348 53 25.4804 53.1054 25.2929 53.2929C25.1054 53.4804 25 53.7348 25 54V56C25 57.103 25.897 58 27 58H37C38.103 58 39 57.103 39 56V52H62V62Z" fill="#121518"/>
</g>
<defs>
<clipPath id="clip0_7736_2376">
<rect width="64" height="64" fill="white"/>
</clipPath>
</defs>
</svg>
