<svg width="12" height="12" viewBox="0 0 12 12" fill="none" xmlns="http://www.w3.org/2000/svg">
<path d="M7.15641 5.99746L2.66724 10.4868C2.54363 10.6101 2.47563 10.775 2.47563 10.9508C2.47563 11.1267 2.54363 11.2915 2.66724 11.415L3.06061 11.8082C3.18402 11.9319 3.349 12 3.5248 12C3.70061 12 3.86539 11.9319 3.9889 11.8082L9.33397 6.46322C9.45797 6.33932 9.52588 6.17376 9.52539 5.99776C9.52588 5.82098 9.45807 5.65561 9.33397 5.53161L3.99388 0.191808C3.87036 0.0681 3.70558 1.90735e-06 3.52968 1.90735e-06C3.35388 1.90735e-06 3.1891 0.0681 3.06549 0.191808L2.67222 0.584978C2.41632 0.84088 2.41632 1.25747 2.67222 1.51327L7.15641 5.99746Z" fill="#5C29DD"/>
</svg>
