<svg width="64" height="64" viewBox="0 0 64 64" fill="none" xmlns="http://www.w3.org/2000/svg">
<path d="M53.2846 21.4165C52.2957 20.2298 51.0579 19.2751 49.659 18.6199C48.2601 17.9646 46.7342 17.625 45.1895 17.625C43.6092 17.625 42.0491 17.9804 40.6248 18.665C39.2005 19.3496 37.9483 20.3457 36.9611 21.5798C36.3882 22.296 35.6615 22.8741 34.8349 23.2714C34.0082 23.6687 33.1028 23.875 32.1856 23.875H31.8144C30.8972 23.875 29.9918 23.6687 29.1651 23.2714C28.3384 22.8741 27.6117 22.2959 27.0387 21.5798C26.0516 20.3457 24.7995 19.3496 23.3751 18.665C21.9508 17.9804 20.3908 17.625 18.8105 17.625C17.2658 17.625 15.7399 17.9646 14.341 18.6199C12.9422 19.2751 11.7044 20.2298 10.7155 21.4165C9.74822 22.5772 8.53757 23.5111 7.16929 24.1519C5.80101 24.7928 4.30855 25.125 2.79763 25.125H1.25L5.9055 56.9183C6.17512 58.7599 7.75463 60.125 9.61588 60.125H54.3841C56.2454 60.125 57.8249 58.7599 58.0945 56.9183L62.75 25.125H61.2024C59.6915 25.125 58.199 24.7928 56.8308 24.152C55.4625 23.5111 54.2519 22.5772 53.2846 21.4165Z" stroke="#121518" stroke-width="2" stroke-miterlimit="10" stroke-linecap="round" stroke-linejoin="round"/>
<path d="M18.875 23.25V17C18.875 9.75125 24.7512 3.875 32 3.875C39.2488 3.875 45.125 9.75125 45.125 17V23.25M37.625 33.875H50.125L47.625 51.375H16.375L13.875 33.875H26.375" stroke="#121518" stroke-width="2" stroke-miterlimit="10" stroke-linecap="round" stroke-linejoin="round"/>
</svg>
