<svg width="64" height="64" viewBox="0 0 64 64" fill="none" xmlns="http://www.w3.org/2000/svg">
<path d="M56.0013 28.0001C54.8821 27.9978 53.7906 28.3477 52.8813 29.0001L46.668 33.4135V32.0001C46.668 30.232 45.9656 28.5363 44.7153 27.2861C43.4651 26.0358 41.7694 25.3335 40.0013 25.3335H39.6946C41.3272 23.9041 42.4849 22.0107 43.0134 19.9062C43.5419 17.8017 43.416 15.586 42.6525 13.5549C41.8889 11.5238 40.5241 9.77384 38.7401 8.53861C36.9561 7.30338 34.8379 6.6416 32.668 6.6416C30.4981 6.6416 28.3798 7.30338 26.5958 8.53861C24.8118 9.77384 23.447 11.5238 22.6835 13.5549C21.9199 15.586 21.794 17.8017 22.3225 19.9062C22.851 22.0107 24.0088 23.9041 25.6413 25.3335H19.2813C20.324 24.1724 21.0043 22.7318 21.2385 21.189C21.4727 19.6462 21.2507 18.0686 20.5996 16.6504C19.9485 15.2322 18.8969 14.0354 17.5742 13.2074C16.2516 12.3793 14.7156 11.9562 13.1555 11.9901C11.5954 12.024 10.0792 12.5134 8.79374 13.398C7.50826 14.2827 6.50958 15.524 5.92068 16.9691C5.33179 18.4142 5.17838 20 5.47937 21.5312C5.78035 23.0624 6.52257 24.4721 7.61464 25.5868C6.20038 25.9644 4.94974 26.7971 4.05573 27.9561C3.16171 29.1152 2.67404 30.5363 2.66797 32.0001V50.6668C2.66797 52.4349 3.37035 54.1306 4.62059 55.3808C5.87083 56.6311 7.56653 57.3335 9.33464 57.3335H40.0013C41.7694 57.3335 43.4651 56.6311 44.7153 55.3808C45.9656 54.1306 46.668 52.4349 46.668 50.6668V49.2535L52.8413 53.6668C53.6383 54.253 54.5827 54.606 55.5688 54.6863C56.5549 54.7665 57.544 54.5709 58.4253 54.1212C59.3066 53.6716 60.0455 52.9857 60.5592 52.1401C61.073 51.2946 61.3415 50.3228 61.3346 49.3335V33.3335C61.3346 31.919 60.7727 30.5624 59.7725 29.5622C58.7723 28.562 57.4158 28.0001 56.0013 28.0001ZM24.668 17.3335C24.668 15.7512 25.1372 14.2045 26.0162 12.8889C26.8953 11.5733 28.1447 10.5479 29.6065 9.94243C31.0683 9.33692 32.6768 9.1785 34.2287 9.48718C35.7805 9.79586 37.206 10.5578 38.3248 11.6766C39.4436 12.7954 40.2056 14.2209 40.5143 15.7727C40.8229 17.3246 40.6645 18.9331 40.059 20.3949C39.4535 21.8567 38.4281 23.1062 37.1125 23.9852C35.7969 24.8643 34.2502 25.3335 32.668 25.3335C30.5462 25.3335 28.5114 24.4906 27.0111 22.9903C25.5108 21.49 24.668 19.4552 24.668 17.3335ZM13.3346 14.6668C14.3895 14.6668 15.4206 14.9796 16.2977 15.5656C17.1747 16.1517 17.8583 16.9846 18.262 17.9592C18.6657 18.9337 18.7713 20.006 18.5655 21.0406C18.3597 22.0752 17.8518 23.0255 17.1059 23.7714C16.36 24.5172 15.4097 25.0252 14.3751 25.231C13.3406 25.4368 12.2682 25.3312 11.2937 24.9275C10.3191 24.5238 9.48617 23.8402 8.90013 22.9632C8.3141 22.0861 8.0013 21.055 8.0013 20.0001C8.0013 18.5856 8.56321 17.2291 9.5634 16.2289C10.5636 15.2287 11.9201 14.6668 13.3346 14.6668ZM44.0013 50.6668C44.0013 51.7277 43.5799 52.7451 42.8297 53.4952C42.0796 54.2454 41.0622 54.6668 40.0013 54.6668H9.33464C8.27377 54.6668 7.25635 54.2454 6.50621 53.4952C5.75606 52.7451 5.33464 51.7277 5.33464 50.6668V32.0001C5.33464 30.9393 5.75606 29.9218 6.50621 29.1717C7.25635 28.4216 8.27377 28.0001 9.33464 28.0001H40.0013C41.0622 28.0001 42.0796 28.4216 42.8297 29.1717C43.5799 29.9218 44.0013 30.9393 44.0013 32.0001V50.6668ZM58.668 49.3335C58.6826 49.8366 58.5546 50.3336 58.2986 50.7671C58.0426 51.2005 57.6692 51.5526 57.2215 51.7827C56.7738 52.0129 56.2702 52.1116 55.7687 52.0675C55.2673 52.0233 54.7886 51.8382 54.388 51.5335L46.668 45.9868V36.6535L54.388 31.1468C54.7877 30.8428 55.2651 30.6579 55.7653 30.6133C56.2655 30.5688 56.7681 30.6663 57.2153 30.8948C57.6625 31.1233 58.0361 31.4734 58.2931 31.9048C58.5501 32.3362 58.68 32.8314 58.668 33.3335V49.3335Z" fill="#121518"/>
</svg>
