<svg width="64" height="64" viewBox="0 0 64 64" fill="none" xmlns="http://www.w3.org/2000/svg">
<path d="M50.6282 20.2662C51.5638 20.2642 52.4824 20.0171 53.2927 19.5493C54.1029 19.0816 54.7764 18.4097 55.246 17.6005C55.3399 17.4381 55.3894 17.2538 55.3894 17.0662C55.3894 16.8786 55.3399 16.6944 55.246 16.532C54.7779 15.7215 54.1048 15.0484 53.2943 14.5805C52.4837 14.1126 51.5642 13.8662 50.6283 13.8662C49.6924 13.8662 48.7729 14.1126 47.9623 14.5805C47.1518 15.0484 46.4787 15.7215 46.0106 16.532C45.9167 16.6944 45.8672 16.8786 45.8672 17.0662C45.8672 17.2538 45.9167 17.4381 46.0106 17.6005C46.4802 18.4096 47.1537 19.0816 47.9639 19.5493C48.7741 20.017 49.6927 20.2642 50.6282 20.2662ZM50.6282 15.9996C51.078 16.0006 51.5226 16.0961 51.9331 16.2798C52.3437 16.4636 52.711 16.7315 53.0114 17.0662C52.7117 17.4018 52.3445 17.6703 51.9338 17.8541C51.5231 18.0379 51.0782 18.1329 50.6283 18.1329C50.1784 18.1329 49.7335 18.0379 49.3228 17.8541C48.9121 17.6703 48.5449 17.4018 48.2452 17.0662C48.5456 16.7315 48.9129 16.4636 49.3234 16.2798C49.7339 16.0961 50.1785 16.0006 50.6282 15.9996Z" fill="#121518"/>
<path d="M57.5552 54.7695C56.8544 54.1947 56.0268 53.5815 55.0885 52.9404C59.7234 50.1776 62.933 44.3772 62.933 38.3997C62.933 32.9816 60.7981 26.4884 56.0285 24.196C54.056 23.248 51.0213 22.756 47.036 24.9401C46.8454 23.0353 46.2666 21.4429 45.7218 19.9479C44.6924 17.1233 43.8793 14.8924 45.7537 11.1435L43.8457 10.1893C41.5604 14.76 42.6569 17.7687 43.7174 20.6784C44.3341 22.3704 44.9625 24.0967 44.9574 26.2715C44.9041 26.31 44.8525 26.3463 44.7994 26.3857C41.8716 24.2079 39.372 23.442 37.3328 23.3949V17.0664C37.3316 16.8358 37.2568 16.6116 37.1194 16.4264L30.933 8.17761V2.13307C30.933 1.85018 30.8207 1.57886 30.6206 1.37883C30.4206 1.17879 30.1493 1.06641 29.8664 1.06641H10.6664C10.3835 1.06641 10.1122 1.17879 9.91213 1.37883C9.71209 1.57886 9.59971 1.85018 9.59971 2.13307V8.17761L3.41304 16.4264C3.27566 16.6116 3.20092 16.8358 3.19971 17.0664V40.1525C2.24431 40.7316 1.5493 41.6572 1.25957 42.7361C0.809039 44.2905 0.919972 46.5495 4.00731 48.4873C4.72429 48.9274 5.47825 49.3041 6.26064 49.6132C3.09891 51.3321 2.72037 53.4399 2.73171 54.3957C2.75504 56.3492 4.28117 58.0491 6.61971 58.7272C6.96729 58.8264 7.32719 58.8758 7.68864 58.8739C9.61064 58.8739 11.9834 57.5737 14.7618 54.9939C15.5972 54.2183 16.3618 53.4287 17.0008 52.7311C17.1135 53.6788 17.451 54.5859 17.9852 55.3768C19.2804 57.2949 21.7517 58.6695 26.2485 59.9728C30.5705 61.2255 38.7384 62.4128 45.6698 62.7969C47.2841 62.8863 48.8016 62.9303 50.1973 62.9303C51.8899 62.9446 53.5818 62.8577 55.264 62.6701C58.5396 62.2659 60.2605 61.4035 60.6798 59.9567C61.0992 58.5099 60.1064 56.8627 57.5552 54.7695ZM44.6797 28.7897C44.5291 29.4892 44.3326 30.1779 44.0913 30.8515C43.6614 30.7534 43.2562 30.5679 42.9011 30.3066C42.5459 30.0452 42.2483 29.7136 42.0268 29.3323L40.1801 30.4005C40.6485 31.2111 41.3218 31.8842 42.1327 32.3521C42.9435 32.8201 43.8632 33.0664 44.7993 33.0664C45.7355 33.0664 46.6551 32.8201 47.466 32.3521C48.2768 31.8842 48.9502 31.2111 49.4185 30.4005L47.5718 29.3323C47.3015 29.7976 46.9184 30.1873 46.4578 30.4656C46.7533 29.472 46.9507 28.4518 47.047 27.4197C50.052 25.4701 52.8121 25.0167 55.104 26.1183C58.4577 27.7304 60.7997 32.7805 60.7997 38.3997C60.7997 43.9653 57.5008 49.5337 53.0488 51.6115C51.9662 50.9361 50.7832 50.2395 49.5154 49.5315C43.453 46.1492 35.9154 42.7848 31.594 41.5324C30.6629 41.2625 29.8046 41.0425 29.0085 40.8701C28.871 40.0538 28.8011 39.2276 28.7997 38.3997C28.7997 32.7805 31.1417 27.7304 34.495 26.1188C37.1838 24.8264 40.5166 25.6727 44.1333 28.566C44.2906 28.6908 44.4801 28.7684 44.6797 28.7897ZM5.33304 18.1331H22.3997V24.5331H5.33304V18.1331ZM24.533 18.1331H35.1997V23.6176C34.6378 23.752 34.0918 23.9459 33.5709 24.196C28.8013 26.4884 26.6664 32.9816 26.6664 38.3997C26.6673 39.1014 26.7115 39.8023 26.7989 40.4985C26.0472 40.4078 25.2886 40.3868 24.533 40.4359V18.1331ZM25.5997 15.9997L29.8664 10.3108L34.133 15.9997H25.5997ZM11.733 3.19974H28.7997V7.46641H11.733V3.19974ZM11.1997 9.59974H27.733L22.933 15.9997H6.39971L11.1997 9.59974ZM5.33304 26.6664H22.3997V40.8967C22.3166 40.9289 22.2341 40.9623 22.1532 40.9977C21.2792 41.3793 20.5089 41.9641 19.9064 42.7033C19.739 41.7727 19.516 40.6984 19.2252 39.5977C18.0685 35.2201 16.4252 32.6941 14.3408 32.0901C12.0021 31.4123 9.80317 32.0328 8.73917 33.6712C8.21917 34.4723 7.41104 36.4563 9.16371 39.5995C8.33708 39.4425 7.49836 39.3577 6.65704 39.3461H6.61704C6.18772 39.3446 5.75884 39.3739 5.33371 39.4337L5.33304 26.6664ZM7.21304 56.6781C5.79811 56.2681 4.87624 55.3621 4.86437 54.3703C4.85104 53.24 6.09104 51.6359 9.61291 50.5237C9.83118 50.4548 10.0215 50.3174 10.1557 50.1319C10.2899 49.9465 10.3608 49.7227 10.3581 49.4938C10.3553 49.2649 10.279 49.043 10.1404 48.8608C10.0018 48.6786 9.80825 48.5459 9.58837 48.4821C4.76291 47.0833 2.70837 45.3981 3.30837 43.3301C3.66517 42.0989 4.74397 41.4853 6.57691 41.4853C7.82291 41.4853 9.41771 41.7691 11.3708 42.3351C11.5907 42.3988 11.8252 42.3901 12.0398 42.3102C12.2543 42.2304 12.4375 42.0836 12.5622 41.8916C12.6869 41.6996 12.7466 41.4726 12.7323 41.2441C12.718 41.0156 12.6307 40.7978 12.483 40.6228C10.1021 37.7997 9.91171 35.7812 10.5276 34.8333C11.068 34.0015 12.3314 33.7291 13.7464 34.1391C16.0556 34.8084 17.7164 41.1939 18.1877 45.6375L17.1154 49.3368C14.341 52.8397 9.52291 57.3472 7.21371 56.6781H7.21304ZM58.6317 59.3645C58.4826 59.8789 55.8032 61.2224 45.788 60.668C44.107 60.5747 42.354 60.4341 40.6041 60.2567L41.6457 56.6627L39.5968 56.0688L38.4517 60.0197C33.8917 59.4785 29.5668 58.7145 26.8425 57.9249C22.9188 56.7877 20.7322 55.634 19.7532 54.1841C18.8598 52.8612 18.8441 51.036 19.6998 48.0811C20.5556 45.1261 21.5457 43.5921 23.008 42.952C23.6293 42.68 24.3798 42.5427 25.2949 42.5427C26.7405 42.5427 28.5962 42.8856 30.999 43.5819C31.3201 43.6752 31.6617 43.7819 32.018 43.8981L29.3513 53.0995L31.4002 53.6933L34.0329 44.6096C38.2285 46.1855 43.79 48.7811 48.475 51.3951C49.6144 52.0307 50.6305 52.6267 51.538 53.1844L50.4357 56.9891L52.4846 57.5831L53.4122 54.3831C57.8516 57.3473 58.7464 58.9676 58.6317 59.3645Z" fill="#121518"/>
</svg>
