<svg width="32" height="32" viewBox="0 0 32 32" fill="none" xmlns="http://www.w3.org/2000/svg">
<g clip-path="url(#clip0_7736_2910)">
<path d="M22.7075 15.2933L12.7075 5.29329C12.5676 5.15328 12.3894 5.05791 12.1953 5.01926C12.0012 4.98061 11.8 5.00041 11.6172 5.07616C11.4344 5.15192 11.2782 5.28021 11.1683 5.44481C11.0584 5.6094 10.9998 5.80289 11 6.00079V26.0008C10.9998 26.1987 11.0584 26.3922 11.1683 26.5568C11.2782 26.7214 11.4344 26.8497 11.6172 26.9254C11.8 27.0012 12.0012 27.021 12.1953 26.9823C12.3894 26.9437 12.5676 26.8483 12.7075 26.7083L22.7075 16.7083C22.8005 16.6154 22.8742 16.5051 22.9246 16.3837C22.9749 16.2623 23.0008 16.1322 23.0008 16.0008C23.0008 15.8694 22.9749 15.7392 22.9246 15.6178C22.8742 15.4964 22.8005 15.3862 22.7075 15.2933Z" fill="#5C29DD"/>
</g>
<defs>
<clipPath id="clip0_7736_2910">
<rect width="32" height="32" fill="white"/>
</clipPath>
</defs>
</svg>
