<svg width="64" height="64" viewBox="0 0 64 64" fill="none" xmlns="http://www.w3.org/2000/svg">
<g clip-path="url(#clip0_7736_3337)">
<path d="M55.6715 43.0139C55.1509 42.2434 54.4478 41.6138 53.6248 41.1811C52.8018 40.7484 51.8845 40.526 50.9547 40.5339H47.3878L59.5595 21.9173C59.6386 21.8001 59.6936 21.6684 59.7214 21.5297C59.7491 21.391 59.749 21.2482 59.721 21.1096C59.693 20.971 59.6378 20.8393 59.5584 20.7222C59.4791 20.6052 59.3773 20.505 59.2589 20.4277C59.1405 20.3503 59.008 20.2973 58.8689 20.2716C58.7298 20.246 58.587 20.2482 58.4489 20.2782C58.3107 20.3083 58.1798 20.3655 58.064 20.4465C57.9481 20.5276 57.8495 20.6309 57.7739 20.7504L39.9563 48.0005H24.0438L6.22616 20.7504C6.15057 20.6309 6.05197 20.5276 5.93609 20.4465C5.82022 20.3655 5.68938 20.3083 5.55119 20.2782C5.413 20.2482 5.27022 20.246 5.13115 20.2716C4.99209 20.2973 4.85951 20.3503 4.74113 20.4277C4.62275 20.505 4.52094 20.6052 4.44162 20.7222C4.36229 20.8393 4.30704 20.971 4.27907 21.1096C4.2511 21.2482 4.25097 21.391 4.27869 21.5297C4.30642 21.6684 4.36144 21.8001 4.44056 21.9173L16.6123 40.5339H13.0454C12.1148 40.5261 11.1968 40.749 10.3734 41.1825C9.54998 41.616 8.84672 42.2466 8.32642 43.0181L0.533356 54.8048C0.183702 55.3134 -0.00236624 55.9167 2.27188e-05 56.5339V60.8005C2.27188e-05 61.6492 0.337165 62.4632 0.937281 63.0633C1.5374 63.6634 2.35133 64.0005 3.20002 64.0005H60.8C61.6487 64.0005 62.4627 63.6634 63.0628 63.0633C63.6629 62.4632 64 61.6492 64 60.8005V56.5339C64.0013 55.9202 63.8152 55.3207 63.4667 54.8155L55.6715 43.0139ZM16.6976 42.6672H18.0075L22.5739 49.6507C22.6708 49.7991 22.8032 49.9209 22.9591 50.0053C23.115 50.0897 23.2894 50.1339 23.4667 50.1339H40.5334C40.7106 50.1339 40.885 50.0897 41.0409 50.0053C41.1968 49.9209 41.3292 49.7991 41.4262 49.6507L45.9926 42.6672H48.368L49.3814 44.9872L49.055 45.1504C48.3685 45.4992 47.8297 46.0824 47.5362 46.7943C47.2426 47.5062 47.2138 48.2997 47.455 49.0309L48.5952 52.4507C48.7769 53.0046 49.1073 53.498 49.5503 53.8771C49.9933 54.2561 50.5318 54.5062 51.1072 54.6L53.7792 55.048L54.9003 57.6005H10.1643L16.6976 42.6672ZM2.30829 55.9909L10.1035 44.1979C10.4295 43.7199 10.8688 43.3299 11.3821 43.0629C11.8954 42.7958 12.4668 42.6599 13.0454 42.6672H14.3691L7.83576 57.6005H3.32802C3.02838 57.6166 2.73457 57.5134 2.51074 57.3136C2.28691 57.1137 2.15124 56.8334 2.13336 56.5339C2.13336 56.3387 2.19522 56.1499 2.30829 55.9909ZM61.8667 60.8005C61.8667 61.0834 61.7543 61.3548 61.5543 61.5548C61.3542 61.7548 61.0829 61.8672 60.8 61.8672H3.20002C2.91713 61.8672 2.64581 61.7548 2.44578 61.5548C2.24574 61.3548 2.13336 61.0834 2.13336 60.8005V59.512C2.5151 59.6568 2.91974 59.732 3.32802 59.7339H60.672C61.0803 59.732 61.4849 59.6568 61.8667 59.512V60.8005ZM60.672 57.6005H57.231L55.4944 53.6421C55.4114 53.452 55.2748 53.2902 55.1013 53.1765C54.9277 53.0629 54.7248 53.0023 54.5174 53.0021L51.4582 52.4933C51.2673 52.4613 51.0888 52.378 50.9416 52.2523C50.7945 52.1266 50.6843 51.9633 50.623 51.7797L49.4806 48.3525C49.3977 48.1084 49.406 47.8425 49.5041 47.604C49.6021 47.3656 49.7832 47.1707 50.0139 47.0555L50.9419 46.5915C51.1039 46.5673 51.2581 46.5062 51.3926 46.4128C51.5272 46.3195 51.6384 46.1964 51.7177 46.0531C51.797 45.9099 51.8423 45.7503 51.85 45.5867C51.8577 45.4231 51.8277 45.26 51.7622 45.1099L50.6955 42.6672H50.9536C51.5315 42.6598 52.1022 42.7952 52.615 43.0615C53.1279 43.3278 53.567 43.7167 53.8934 44.1936L61.6992 56.0005C61.8083 56.157 61.8667 56.3432 61.8667 56.5339C61.8488 56.8334 61.7131 57.1137 61.4893 57.3136C61.2655 57.5134 60.9717 57.6166 60.672 57.6005Z" fill="#5C29DD"/>
<path d="M30.9331 19.1995C30.9331 19.4824 31.0455 19.7537 31.2455 19.9537C31.4456 20.1538 31.7169 20.2661 31.9998 20.2661C32.2827 20.2661 32.554 20.1538 32.754 19.9537C32.9541 19.7537 33.0665 19.4824 33.0665 19.1995V16.6395L36.7721 14.648C36.8955 14.5816 37.0046 14.4916 37.0932 14.383C37.1818 14.2744 37.2482 14.1495 37.2885 14.0153C37.3288 13.881 37.3423 13.7402 37.3282 13.6008C37.314 13.4614 37.2726 13.3261 37.2062 13.2027C37.1398 13.0793 37.0497 12.9702 36.9412 12.8815C36.8326 12.7929 36.7077 12.7266 36.5734 12.6863C36.3024 12.6049 36.0101 12.6345 35.7609 12.7685L31.9998 14.7888L28.2387 12.7621C27.9895 12.6281 27.6972 12.5985 27.4262 12.6799C27.1551 12.7613 26.9275 12.947 26.7934 13.1963C26.6593 13.4455 26.6297 13.7378 26.7111 14.0089C26.7925 14.2799 26.9783 14.5075 27.2275 14.6416L30.9331 16.6395V19.1995Z" fill="#5C29DD"/>
<path d="M17.6275 24.4044L31.4941 31.8711C31.6495 31.9547 31.8233 31.9985 31.9997 31.9985C32.1762 31.9985 32.35 31.9547 32.5053 31.8711L46.372 24.4044C46.5415 24.3132 46.6832 24.1777 46.782 24.0125C46.8808 23.8472 46.933 23.6583 46.9331 23.4657V8.53241C46.933 8.34797 46.8851 8.1667 46.7941 8.00629C46.703 7.84589 46.5719 7.71183 46.4136 7.61721C46.3997 7.60868 46.3837 7.60548 46.3688 7.59801L32.5021 0.131346C32.3468 0.0476945 32.173 0.00390625 31.9965 0.00390625C31.8201 0.00390625 31.6463 0.0476945 31.4909 0.131346L17.6243 7.59801C17.6093 7.60548 17.5933 7.60868 17.5795 7.61721C17.4223 7.71262 17.2925 7.84702 17.2026 8.00737C17.1127 8.16772 17.0658 8.34858 17.0664 8.53241V23.4657C17.0665 23.6583 17.1187 23.8472 17.2175 24.0125C17.3163 24.1777 17.4579 24.3132 17.6275 24.4044ZM19.1997 10.3169L21.8941 11.7655C22.1434 11.8996 22.4357 11.9292 22.7067 11.8478C22.8409 11.8074 22.9659 11.7411 23.0745 11.6525C23.183 11.5639 23.2731 11.4548 23.3395 11.3313C23.4059 11.2079 23.4473 11.0727 23.4614 10.9332C23.4755 10.7938 23.4621 10.653 23.4218 10.5188C23.3814 10.3846 23.3151 10.2596 23.2265 10.151C23.1379 10.0425 23.0288 9.95241 22.9053 9.88601L20.3848 8.53241L31.9997 2.27748L43.6147 8.53241L41.0941 9.88708C40.8449 10.0212 40.6592 10.2488 40.5777 10.5198C40.4963 10.7909 40.5259 11.0832 40.66 11.3324C40.7941 11.5816 41.0217 11.7674 41.2928 11.8488C41.5638 11.9302 41.8561 11.9006 42.1053 11.7665L44.7997 10.3169V22.8257L33.0664 29.1468V25.5991C33.0664 25.3162 32.954 25.0449 32.754 24.8448C32.554 24.6448 32.2826 24.5324 31.9997 24.5324C31.7168 24.5324 31.4455 24.6448 31.2455 24.8448C31.0455 25.0449 30.9331 25.3162 30.9331 25.5991V29.1468L19.1997 22.8257V10.3169Z" fill="#5C29DD"/>
</g>
<defs>
<clipPath id="clip0_7736_3337">
<rect width="64" height="64" fill="white"/>
</clipPath>
</defs>
</svg>
