<svg width="40" height="40" viewBox="0 0 40 40" fill="none" xmlns="http://www.w3.org/2000/svg">
<path d="M28.4514 13.9145C29.3477 13.3538 30.0183 12.4709 30.3381 11.4307C29.4959 11.9536 28.5744 12.3219 27.6135 12.5198C26.2813 11.0451 24.1705 10.6863 22.4606 11.6437C20.7508 12.6012 19.8651 14.638 20.2985 16.616C16.8486 16.4348 13.6345 14.7295 11.4558 11.9245C10.3188 13.9767 10.8998 16.6001 12.7836 17.9197C12.1024 17.8967 11.4363 17.7037 10.8409 17.3568C10.8409 17.3756 10.8409 17.3944 10.8409 17.4133C10.8413 19.551 12.281 21.3923 14.2834 21.816C13.6515 21.9959 12.9888 22.0223 12.3457 21.8934C12.9088 23.7215 14.5189 24.9739 16.3541 25.0113C14.8341 26.2597 12.9571 26.9366 11.0249 26.9333C10.6824 26.9338 10.3402 26.9132 10 26.8716C11.9621 28.191 14.2458 28.8913 16.5781 28.8888C19.8229 28.9121 22.9412 27.5735 25.2356 25.1725C27.5299 22.7714 28.8089 19.5082 28.7863 16.1127C28.7863 15.9181 28.782 15.7246 28.7733 15.5321C29.6137 14.8965 30.3389 14.1093 30.915 13.2072C30.1322 13.5704 29.3017 13.8088 28.4514 13.9145Z" fill="#121518"/>
</svg>
