<svg width="88" height="88" viewBox="0 0 88 88" fill="none" xmlns="http://www.w3.org/2000/svg">
<path fill-rule="evenodd" clip-rule="evenodd" d="M17 23L50.4286 64.1429C61.7899 64.1429 71 54.9327 71 43.5714C71 32.2101 61.7899 23 50.4286 23H17ZM52.737 58.8285C60.163 57.7143 65.8571 51.3078 65.8571 43.5714C65.8571 35.0505 58.9495 28.1429 50.4286 28.1429H41.9643C45.6288 32.2373 47.8571 37.6441 47.8571 43.5714C47.8571 46.252 47.4005 48.8288 46.5604 51.2264L52.737 58.8285ZM42.5167 46.2496C42.6469 45.3762 42.7143 44.482 42.7143 43.5714C42.7143 37.0237 39.2182 31.2926 33.9909 28.1429H27.805L42.5167 46.2496Z" fill="#ABB0B4"/>
</svg>
