<svg width="20" height="21" viewBox="0 0 20 21" fill="none" xmlns="http://www.w3.org/2000/svg">
<path fill-rule="evenodd" clip-rule="evenodd" d="M7.429 7.30201H11.143V9.15201C11.678 8.08801 13.05 7.13201 15.111 7.13201C19.062 7.13201 20 9.25001 20 13.136V20.333H16V14.021C16 11.808 15.465 10.56 14.103 10.56C12.214 10.56 11.429 11.905 11.429 14.02V20.333H7.429V7.30201ZM0.57 20.163H4.57V7.13201H0.57V20.163ZM5.143 2.88301C5.14315 3.21828 5.07666 3.55024 4.94739 3.8596C4.81812 4.16895 4.62865 4.44952 4.39 4.68501C3.9064 5.16563 3.25181 5.43466 2.57 5.43301C1.88939 5.43255 1.23631 5.16421 0.752 4.68601C0.514211 4.44972 0.325386 4.16883 0.196344 3.85944C0.0673015 3.55005 0.000579132 3.21823 0 2.88301C0 2.20601 0.27 1.55801 0.753 1.08001C1.23689 0.601166 1.89024 0.332709 2.571 0.333008C3.253 0.333008 3.907 0.602008 4.39 1.08001C4.872 1.55801 5.143 2.20601 5.143 2.88301Z" fill="#F9F8F3"/>
</svg>
