<svg width="89" height="88" viewBox="0 0 89 88" fill="none" xmlns="http://www.w3.org/2000/svg">
<path d="M68.7915 54.4583L68.7915 34.0417L64.7082 32M68.7915 54.4583L64.7082 56.5L48.3748 48.3333M68.7915 54.4583L52.4582 46.2917M64.7082 32L64.7082 48.3333L56.5415 44.25L60.6248 42.2083L44.2915 50.375L27.9582 42.2083L32.0415 44.25L23.8748 48.3333L23.8748 32M64.7082 32L44.2915 42.2083L23.8748 32M60.6248 46.2917L60.6248 38.125L44.2915 46.2917L27.9582 38.125L27.9582 46.2917M19.7915 54.4583L19.7915 34.0417L23.8748 32M19.7915 54.4583L23.8748 56.5L40.2082 48.3333M19.7915 54.4583L36.1248 46.2917" stroke="#ABB0B4" stroke-width="2" stroke-linejoin="round"/>
</svg>
