<svg width="56" height="56" viewBox="0 0 56 56" fill="none" xmlns="http://www.w3.org/2000/svg">
<path d="M6 28C6 40.1503 15.8497 50 28 50C40.1503 50 50 40.1503 50 28C50 15.8497 40.1503 6 28 6C15.8497 6 6 15.8497 6 28Z" fill="white"/>
<path d="M25.5059 36.5089L25.5058 36.509C25.2076 36.7066 24.8578 36.8122 24.5001 36.8125H24.5C24.0193 36.8125 23.5583 36.6215 23.2184 36.2816C22.8785 35.9417 22.6875 35.4807 22.6875 35V21V21L25.5059 36.5089ZM25.5059 36.5089L36.0059 29.5089M25.5059 36.5089L36.0059 29.5089M36.0059 29.5089L36.0059 29.5089C36.2545 29.3434 36.4584 29.1191 36.5994 28.8559C36.7404 28.5926 36.8142 28.2986 36.8142 28C36.8142 27.7014 36.7404 27.4074 36.5994 27.1441C36.4584 26.8809 36.2545 26.6566 36.0059 26.4911L36.0059 29.5089ZM15.3955 9.13603C19.1264 6.64311 23.5128 5.31251 28 5.3125C34.0148 5.32001 39.7811 7.71271 44.0342 11.9658C48.2873 16.2189 50.68 21.9853 50.6875 28.0001C50.6875 32.4872 49.3569 36.8736 46.864 40.6045C44.371 44.3354 40.8277 47.2433 36.6821 48.9605C32.5365 50.6777 27.9748 51.127 23.5739 50.2516C19.173 49.3762 15.1304 47.2154 11.9575 44.0425C8.78462 40.8696 6.62385 36.8271 5.74844 32.4261C4.87304 28.0252 5.32233 23.4635 7.03949 19.3179C8.75666 15.1723 11.6646 11.629 15.3955 9.13603ZM36.0059 26.4911L25.5059 19.4911L36.0059 26.4911Z" fill="#5C29DD" stroke="#5C29DD" stroke-width="0.125"/>
</svg>
