<svg width="144" height="42" viewBox="0 0 144 42" fill="none" xmlns="http://www.w3.org/2000/svg">
<g clip-path="url(#clip0_7736_2688)">
<path d="M24.2391 -0.0585938C12.8157 -0.0585938 3.55469 9.3205 3.55469 20.89C3.55469 32.4599 12.8157 41.8383 24.2391 41.8383C35.6638 41.8383 44.9238 32.4599 44.9238 20.89C44.9238 9.32125 35.6638 -0.0575931 24.2389 -0.0575931L24.2391 -0.0585938ZM33.7249 30.1552C33.6366 30.3017 33.5207 30.4291 33.3838 30.5302C33.2468 30.6312 33.0915 30.704 32.9268 30.7442C32.7621 30.7843 32.5911 30.7913 32.4238 30.7645C32.2564 30.7377 32.0959 30.6777 31.9514 30.588C27.0949 27.5836 20.9812 26.9032 13.7812 28.5693C13.4478 28.646 13.0979 28.5856 12.8085 28.4013C12.5191 28.2169 12.3138 27.9237 12.2377 27.5861C12.1998 27.419 12.1948 27.2459 12.2231 27.0768C12.2513 26.9077 12.3122 26.7459 12.4023 26.6007C12.4924 26.4554 12.6099 26.3296 12.748 26.2305C12.8862 26.1313 13.0423 26.0607 13.2074 26.0227C21.0867 24.1995 27.8453 24.9845 33.2976 28.3591C33.9052 28.7369 34.0979 29.5399 33.7249 30.1552ZM36.2566 24.4512C35.7898 25.2197 34.7969 25.4623 34.0386 24.9895C28.4786 21.5284 20.0034 20.526 13.427 22.5478C12.5741 22.8087 11.6733 22.3219 11.4144 21.4596C11.2909 21.045 11.3348 20.5978 11.5364 20.2159C11.738 19.834 12.0809 19.5487 12.4899 19.4226C20.0019 17.1141 29.3407 18.2323 35.7256 22.206C36.4839 22.6788 36.7235 23.6845 36.2566 24.4514V24.4512ZM36.474 18.5115C29.8075 14.5012 18.8086 14.1325 12.4437 16.089C11.4216 16.4029 10.3407 15.8186 10.031 14.7834C9.88207 14.2861 9.93425 13.7492 10.1761 13.2908C10.4179 12.8325 10.8296 12.4902 11.3206 12.3391C18.6271 10.0927 30.7733 10.5268 38.4485 15.1414C38.6673 15.2724 38.8583 15.4459 39.0108 15.6519C39.1632 15.8578 39.2741 16.0922 39.3369 16.3416C39.3998 16.591 39.4135 16.8506 39.3771 17.1053C39.3408 17.3601 39.2552 17.6051 39.1253 17.8263C38.5819 18.7574 37.3914 19.0643 36.475 18.5115H36.474ZM59.8302 19.28C56.2586 18.4174 55.6239 17.812 55.6239 16.54C55.6239 15.3383 56.7403 14.5295 58.4026 14.5295C60.013 14.5295 61.6086 15.1436 63.2833 16.4079C63.3327 16.4462 63.3969 16.4615 63.4587 16.4514C63.4897 16.4469 63.5196 16.436 63.5463 16.4194C63.5731 16.4028 63.5962 16.3809 63.6143 16.3549L65.3581 13.8653C65.3925 13.816 65.4071 13.7552 65.3988 13.6953C65.3906 13.6355 65.3601 13.581 65.3136 13.5431C63.3203 11.9239 61.0776 11.1366 58.4545 11.1366C54.5988 11.1366 51.904 13.4803 51.904 16.8337C51.904 20.4297 54.2283 21.703 58.2445 22.6858C61.6605 23.4831 62.2385 24.151 62.2385 25.3447C62.2385 26.6681 61.0727 27.4911 59.1955 27.4911C57.1108 27.4911 55.409 26.7781 53.5071 25.1121C53.4596 25.0715 53.3986 25.0509 53.3366 25.0546C53.2724 25.0596 53.2156 25.0896 53.1761 25.1371L51.2199 27.4936C51.1383 27.5936 51.1482 27.7387 51.2421 27.8238C53.4552 29.825 56.1771 30.8807 59.1164 30.8807C63.271 30.8807 65.9558 28.5818 65.9558 25.022C65.9632 22.0184 64.1873 20.3549 59.8377 19.2832L59.8302 19.28ZM75.3566 15.7127C73.556 15.7127 72.0789 16.4312 70.8588 17.9034V16.2463C70.859 16.1837 70.8347 16.1235 70.7912 16.079C70.7477 16.0344 70.6884 16.0093 70.6266 16.0089H67.4279C67.2995 16.0089 67.1958 16.1155 67.1958 16.2463V34.6581C67.1958 34.7881 67.2995 34.8957 67.4279 34.8957H70.6266C70.755 34.8957 70.8588 34.7881 70.8588 34.6581V28.8469C72.0789 30.2303 73.556 30.9082 75.3566 30.9082C78.7035 30.9082 82.0923 28.2991 82.0923 23.3112C82.0972 18.3224 78.7084 15.7125 75.3591 15.7125L75.3566 15.7127ZM78.3725 23.3112C78.3725 25.8501 76.8287 27.6237 74.6156 27.6237C72.4297 27.6237 70.7797 25.77 70.7797 23.3112C70.7797 20.8522 72.4297 18.999 74.6156 18.999C76.7917 18.9988 78.3725 20.8119 78.3725 23.311V23.3112ZM90.7743 15.7127C86.4642 15.7127 83.0877 19.0738 83.0877 23.3655C83.0877 27.6112 86.4419 30.9357 90.7224 30.9357C95.0474 30.9357 98.4338 27.5861 98.4338 23.3112C98.4338 19.0508 95.0696 15.7132 90.7743 15.7132V15.7127ZM90.7743 27.6487C88.4822 27.6487 86.7532 25.7825 86.7532 23.31C86.7532 20.8262 88.4229 19.0238 90.7224 19.0238C93.0294 19.0238 94.7683 20.8892 94.7683 23.3643C94.7683 25.8476 93.0887 27.6487 90.7743 27.6487ZM107.637 16.0089H104.117V12.3652C104.117 12.3341 104.111 12.3034 104.1 12.2747C104.088 12.246 104.071 12.2199 104.05 12.1979C104.028 12.1759 104.002 12.1584 103.974 12.1464C103.946 12.1344 103.916 12.1281 103.885 12.128H100.686C100.558 12.128 100.452 12.2346 100.452 12.3652V16.0089H98.9154C98.787 16.0089 98.6832 16.1155 98.6832 16.2463V19.0298C98.6832 19.1604 98.787 19.2672 98.9154 19.2672H100.452V26.4704C100.452 29.3798 101.882 30.8557 104.705 30.8557C105.851 30.8557 106.802 30.6155 107.699 30.1002C107.773 30.0602 107.817 29.9801 107.817 29.8951V27.2434C107.817 27.1634 107.775 27.0858 107.706 27.0433C107.672 27.0215 107.634 27.0091 107.594 27.0074C107.554 27.0056 107.514 27.0145 107.479 27.0333C106.864 27.346 106.269 27.4911 105.602 27.4911C104.577 27.4911 104.117 27.0183 104.117 25.9626V19.2685H107.637C107.765 19.2685 107.869 19.1619 107.869 19.0311V16.2478C107.87 16.2168 107.865 16.1858 107.854 16.1569C107.843 16.1279 107.826 16.1015 107.804 16.0793C107.783 16.0571 107.757 16.0396 107.729 16.0277C107.701 16.0159 107.67 16.01 107.639 16.0104L107.637 16.0089ZM119.898 16.0232V15.5757C119.898 14.2591 120.397 13.672 121.513 13.672C122.18 13.672 122.716 13.8061 123.316 14.0087C123.391 14.0322 123.467 14.0204 123.526 13.9757C123.556 13.9537 123.581 13.9247 123.598 13.8912C123.614 13.8577 123.623 13.8206 123.623 13.783V11.0538C123.623 11.0029 123.607 10.9531 123.578 10.9121C123.548 10.871 123.505 10.841 123.457 10.8264C122.825 10.6356 122.015 10.4397 120.8 10.4397C117.848 10.4397 116.284 12.1243 116.284 15.3095V15.9949H114.748C114.62 15.9949 114.513 16.1015 114.513 16.2321V19.0298C114.513 19.1604 114.62 19.2672 114.748 19.2672H116.284V30.3754C116.284 30.508 116.391 30.613 116.519 30.613H119.715C119.846 30.613 119.95 30.508 119.95 30.3754V19.268H122.936L127.51 30.3754C126.992 31.5411 126.481 31.7738 125.784 31.7738C125.221 31.7738 124.626 31.6036 124.02 31.2659C123.963 31.2366 123.897 31.2304 123.835 31.2484C123.773 31.2709 123.722 31.316 123.697 31.376L122.613 33.785C122.561 33.9001 122.605 34.0327 122.714 34.0927C123.845 34.7131 124.865 34.9782 126.127 34.9782C128.489 34.9782 129.795 33.8626 130.944 30.8657L136.491 16.3474C136.506 16.3115 136.511 16.2725 136.507 16.234C136.503 16.1955 136.489 16.1587 136.467 16.127C136.446 16.0953 136.418 16.0693 136.384 16.0513C136.351 16.0333 136.314 16.0239 136.277 16.0239H132.947C132.846 16.0239 132.757 16.0882 132.725 16.183L129.314 26.0477L125.579 16.1765C125.562 16.1318 125.533 16.0932 125.494 16.066C125.455 16.0387 125.409 16.0241 125.362 16.0239H119.898V16.0232ZM112.789 16.0089H109.591C109.462 16.0089 109.356 16.1155 109.356 16.2463V30.3754C109.356 30.508 109.462 30.613 109.591 30.613H112.789C112.918 30.613 113.024 30.508 113.024 30.3754V16.2473C113.024 16.2161 113.018 16.1852 113.006 16.1563C112.994 16.1275 112.977 16.1013 112.955 16.0792C112.934 16.0572 112.908 16.0397 112.879 16.0278C112.851 16.0159 112.82 16.0098 112.789 16.0099V16.0089ZM111.209 9.57516C109.941 9.57516 108.914 10.6138 108.914 11.8969C108.914 12.202 108.973 12.5042 109.089 12.7862C109.204 13.0681 109.373 13.3243 109.586 13.5401C109.799 13.7558 110.052 13.927 110.33 14.0437C110.609 14.1605 110.907 14.2206 111.209 14.2206C112.476 14.2206 113.501 13.1807 113.501 11.8969C113.501 10.6141 112.473 9.57516 111.209 9.57516ZM139.223 20.552C137.959 20.552 136.973 19.5226 136.973 18.2726C136.973 17.0226 137.971 15.9814 139.236 15.9814C140.5 15.9814 141.486 17.0105 141.486 18.2596C141.486 19.5096 140.488 20.552 139.223 20.552ZM139.236 16.208C138.082 16.208 137.21 17.1361 137.21 18.2726C137.21 19.4085 138.077 20.3241 139.223 20.3241C140.377 20.3241 141.249 19.3968 141.249 18.2596C141.249 17.1236 140.382 16.208 139.236 16.208ZM139.734 18.494L140.372 19.3965H139.833L139.26 18.5685H138.769V19.3965H138.319V17.004H139.371C139.922 17.004 140.283 17.2885 140.283 17.7673C140.285 18.1595 140.061 18.3992 139.737 18.494H139.734ZM139.354 17.4145H138.769V18.1713H139.354C139.646 18.1713 139.821 18.0264 139.821 17.7925C139.821 17.5464 139.646 17.4145 139.354 17.4145Z" fill="#F9F8F3"/>
</g>
<defs>
<clipPath id="clip0_7736_2688">
<rect width="143" height="42" fill="white" transform="translate(0.5)"/>
</clipPath>
</defs>
</svg>
